<svg width="21" height="21" viewBox="0 0 21 21" fill="none" xmlns="http://www.w3.org/2000/svg">
<path d="M6.80918 1.48206H3.00918C2.44913 1.48206 2.1691 1.48206 1.95519 1.59105C1.76703 1.68692 1.61405 1.8399 1.51817 2.02807C1.40918 2.24198 1.40918 2.522 1.40918 3.08206V6.88206C1.40918 7.44211 1.40918 7.72213 1.51817 7.93605C1.61405 8.12421 1.76703 8.27719 1.95519 8.37306C2.1691 8.48206 2.44913 8.48206 3.00918 8.48206H6.80918C7.36923 8.48206 7.64926 8.48206 7.86317 8.37306C8.05133 8.27719 8.20431 8.12421 8.30019 7.93605C8.40918 7.72213 8.40918 7.44211 8.40918 6.88206V3.08206C8.40918 2.522 8.40918 2.24198 8.30019 2.02807C8.20431 1.8399 8.05133 1.68692 7.86317 1.59105C7.64926 1.48206 7.36923 1.48206 6.80918 1.48206Z" stroke="white" stroke-width="1.5" stroke-linecap="round" stroke-linejoin="round"/>
<path d="M17.8092 1.48206H14.0092C13.4491 1.48206 13.1691 1.48206 12.9552 1.59105C12.767 1.68692 12.614 1.8399 12.5182 2.02807C12.4092 2.24198 12.4092 2.522 12.4092 3.08206V6.88206C12.4092 7.44211 12.4092 7.72213 12.5182 7.93605C12.614 8.12421 12.767 8.27719 12.9552 8.37306C13.1691 8.48206 13.4491 8.48206 14.0092 8.48206H17.8092C18.3692 8.48206 18.6493 8.48206 18.8632 8.37306C19.0513 8.27719 19.2043 8.12421 19.3002 7.93605C19.4092 7.72213 19.4092 7.44211 19.4092 6.88206V3.08206C19.4092 2.522 19.4092 2.24198 19.3002 2.02807C19.2043 1.8399 19.0513 1.68692 18.8632 1.59105C18.6493 1.48206 18.3692 1.48206 17.8092 1.48206Z" stroke="white" stroke-width="1.5" stroke-linecap="round" stroke-linejoin="round"/>
<path d="M17.8092 12.4821H14.0092C13.4491 12.4821 13.1691 12.4821 12.9552 12.591C12.767 12.6869 12.614 12.8399 12.5182 13.0281C12.4092 13.242 12.4092 13.522 12.4092 14.0821V17.8821C12.4092 18.4421 12.4092 18.7221 12.5182 18.936C12.614 19.1242 12.767 19.2772 12.9552 19.3731C13.1691 19.4821 13.4491 19.4821 14.0092 19.4821H17.8092C18.3692 19.4821 18.6493 19.4821 18.8632 19.3731C19.0513 19.2772 19.2043 19.1242 19.3002 18.936C19.4092 18.7221 19.4092 18.4421 19.4092 17.8821V14.0821C19.4092 13.522 19.4092 13.242 19.3002 13.0281C19.2043 12.8399 19.0513 12.6869 18.8632 12.591C18.6493 12.4821 18.3692 12.4821 17.8092 12.4821Z" stroke="white" stroke-width="1.5" stroke-linecap="round" stroke-linejoin="round"/>
<path d="M6.80918 12.4821H3.00918C2.44913 12.4821 2.1691 12.4821 1.95519 12.591C1.76703 12.6869 1.61405 12.8399 1.51817 13.0281C1.40918 13.242 1.40918 13.522 1.40918 14.0821V17.8821C1.40918 18.4421 1.40918 18.7221 1.51817 18.936C1.61405 19.1242 1.76703 19.2772 1.95519 19.3731C2.1691 19.4821 2.44913 19.4821 3.00918 19.4821H6.80918C7.36923 19.4821 7.64926 19.4821 7.86317 19.3731C8.05133 19.2772 8.20431 19.1242 8.30019 18.936C8.40918 18.7221 8.40918 18.4421 8.40918 17.8821V14.0821C8.40918 13.522 8.40918 13.242 8.30019 13.0281C8.20431 12.8399 8.05133 12.6869 7.86317 12.591C7.64926 12.4821 7.36923 12.4821 6.80918 12.4821Z" stroke="white" stroke-width="1.5" stroke-linecap="round" stroke-linejoin="round"/>
</svg>
