<svg width="23" height="22" viewBox="0 0 23 22" fill="none" xmlns="http://www.w3.org/2000/svg">
<path d="M7.90918 13.4206C7.90918 14.7092 8.95385 15.7539 10.2425 15.7539H12.4092C13.7899 15.7539 14.9092 14.6346 14.9092 13.2539C14.9092 11.8732 13.7899 10.7539 12.4092 10.7539H10.4092C9.02847 10.7539 7.90918 9.63462 7.90918 8.25391C7.90918 6.87319 9.02847 5.75391 10.4092 5.75391H12.5758C13.8645 5.75391 14.9092 6.79858 14.9092 8.08724M11.4092 4.25391V5.75391M11.4092 15.7539V17.2539M21.4092 10.7539C21.4092 16.2768 16.932 20.7539 11.4092 20.7539C5.88633 20.7539 1.40918 16.2768 1.40918 10.7539C1.40918 5.23106 5.88633 0.753906 11.4092 0.753906C16.932 0.753906 21.4092 5.23106 21.4092 10.7539Z" stroke="#252B37" stroke-width="1.5" stroke-linecap="round" stroke-linejoin="round"/>
</svg>
