<svg width="21" height="21" viewBox="0 0 21 21" fill="none" xmlns="http://www.w3.org/2000/svg">
<path d="M6.80918 1.48218H3.00918C2.44913 1.48218 2.1691 1.48218 1.95519 1.59117C1.76703 1.68704 1.61405 1.84003 1.51817 2.02819C1.40918 2.2421 1.40918 2.52213 1.40918 3.08218V6.88218C1.40918 7.44223 1.40918 7.72226 1.51817 7.93617C1.61405 8.12433 1.76703 8.27731 1.95519 8.37318C2.1691 8.48218 2.44913 8.48218 3.00918 8.48218H6.80918C7.36923 8.48218 7.64926 8.48218 7.86317 8.37318C8.05133 8.27731 8.20431 8.12433 8.30019 7.93617C8.40918 7.72226 8.40918 7.44223 8.40918 6.88218V3.08218C8.40918 2.52213 8.40918 2.2421 8.30019 2.02819C8.20431 1.84003 8.05133 1.68704 7.86317 1.59117C7.64926 1.48218 7.36923 1.48218 6.80918 1.48218Z" stroke="#252B37" stroke-width="1.5" stroke-linecap="round" stroke-linejoin="round"/>
<path d="M17.8092 1.48218H14.0092C13.4491 1.48218 13.1691 1.48218 12.9552 1.59117C12.767 1.68704 12.614 1.84003 12.5182 2.02819C12.4092 2.2421 12.4092 2.52213 12.4092 3.08218V6.88218C12.4092 7.44223 12.4092 7.72226 12.5182 7.93617C12.614 8.12433 12.767 8.27731 12.9552 8.37318C13.1691 8.48218 13.4491 8.48218 14.0092 8.48218H17.8092C18.3692 8.48218 18.6493 8.48218 18.8632 8.37318C19.0513 8.27731 19.2043 8.12433 19.3002 7.93617C19.4092 7.72226 19.4092 7.44223 19.4092 6.88218V3.08218C19.4092 2.52213 19.4092 2.2421 19.3002 2.02819C19.2043 1.84003 19.0513 1.68704 18.8632 1.59117C18.6493 1.48218 18.3692 1.48218 17.8092 1.48218Z" stroke="#252B37" stroke-width="1.5" stroke-linecap="round" stroke-linejoin="round"/>
<path d="M17.8092 12.4822H14.0092C13.4491 12.4822 13.1691 12.4822 12.9552 12.5912C12.767 12.687 12.614 12.84 12.5182 13.0282C12.4092 13.2421 12.4092 13.5221 12.4092 14.0822V17.8822C12.4092 18.4422 12.4092 18.7223 12.5182 18.9362C12.614 19.1243 12.767 19.2773 12.9552 19.3732C13.1691 19.4822 13.4491 19.4822 14.0092 19.4822H17.8092C18.3692 19.4822 18.6493 19.4822 18.8632 19.3732C19.0513 19.2773 19.2043 19.1243 19.3002 18.9362C19.4092 18.7223 19.4092 18.4422 19.4092 17.8822V14.0822C19.4092 13.5221 19.4092 13.2421 19.3002 13.0282C19.2043 12.84 19.0513 12.687 18.8632 12.5912C18.6493 12.4822 18.3692 12.4822 17.8092 12.4822Z" stroke="#252B37" stroke-width="1.5" stroke-linecap="round" stroke-linejoin="round"/>
<path d="M6.80918 12.4822H3.00918C2.44913 12.4822 2.1691 12.4822 1.95519 12.5912C1.76703 12.687 1.61405 12.84 1.51817 13.0282C1.40918 13.2421 1.40918 13.5221 1.40918 14.0822V17.8822C1.40918 18.4422 1.40918 18.7223 1.51817 18.9362C1.61405 19.1243 1.76703 19.2773 1.95519 19.3732C2.1691 19.4822 2.44913 19.4822 3.00918 19.4822H6.80918C7.36923 19.4822 7.64926 19.4822 7.86317 19.3732C8.05133 19.2773 8.20431 19.1243 8.30019 18.9362C8.40918 18.7223 8.40918 18.4422 8.40918 17.8822V14.0822C8.40918 13.5221 8.40918 13.2421 8.30019 13.0282C8.20431 12.84 8.05133 12.687 7.86317 12.5912C7.64926 12.4822 7.36923 12.4822 6.80918 12.4822Z" stroke="#252B37" stroke-width="1.5" stroke-linecap="round" stroke-linejoin="round"/>
</svg>
