<svg width="23" height="21" viewBox="0 0 23 21" fill="none" xmlns="http://www.w3.org/2000/svg">
<path d="M6.90918 9.30029H4.00918C3.44913 9.30029 3.1691 9.30029 2.95519 9.40929C2.76703 9.50516 2.61405 9.65814 2.51817 9.8463C2.40918 10.0602 2.40918 10.3402 2.40918 10.9003V19.3003M15.9092 9.30029H18.8092C19.3692 9.30029 19.6493 9.30029 19.8632 9.40929C20.0513 9.50516 20.2043 9.65814 20.3002 9.8463C20.4092 10.0602 20.4092 10.3402 20.4092 10.9003V19.3003M15.9092 19.3003V4.50029C15.9092 3.38019 15.9092 2.82014 15.6912 2.39231C15.4994 2.01599 15.1935 1.71003 14.8172 1.51828C14.3893 1.30029 13.8293 1.30029 12.7092 1.30029H10.1092C8.98907 1.30029 8.42902 1.30029 8.0012 1.51828C7.62487 1.71003 7.31891 2.01599 7.12717 2.39231C6.90918 2.82014 6.90918 3.38019 6.90918 4.50029V19.3003M21.4092 19.3003H1.40918M10.4092 5.30029H12.4092M10.4092 9.30029H12.4092M10.4092 13.3003H12.4092" stroke="white" stroke-width="1.5" stroke-linecap="round" stroke-linejoin="round"/>
</svg>
