<svg width="20" height="22" viewBox="0 0 20 22" fill="none" xmlns="http://www.w3.org/2000/svg">
<path d="M10.9092 0.936523H13.6092C15.2893 0.936523 16.1294 0.936523 16.7712 1.2635C17.3356 1.55112 17.7946 2.01007 18.0822 2.57455C18.4092 3.21629 18.4092 4.05637 18.4092 5.73652V16.1365C18.4092 17.8167 18.4092 18.6568 18.0822 19.2985C17.7946 19.863 17.3356 20.3219 16.7712 20.6095C16.1294 20.9365 15.2893 20.9365 13.6092 20.9365H7.20918C5.52902 20.9365 4.68894 20.9365 4.04721 20.6095C3.48272 20.3219 3.02378 19.863 2.73616 19.2985C2.40918 18.6568 2.40918 17.8167 2.40918 16.1365V15.4365M14.4092 11.9365H9.90918M14.4092 7.93652H10.9092M14.4092 15.9365H6.40918M4.40918 8.93652V3.43652C4.40918 2.6081 5.08075 1.93652 5.90918 1.93652C6.73761 1.93652 7.40918 2.6081 7.40918 3.43652V8.93652C7.40918 10.5934 6.06603 11.9365 4.40918 11.9365C2.75233 11.9365 1.40918 10.5934 1.40918 8.93652V4.93652" stroke="#252B37" stroke-width="1.5" stroke-linecap="round" stroke-linejoin="round"/>
</svg>
