<svg width="23" height="21" viewBox="0 0 23 21" fill="none" xmlns="http://www.w3.org/2000/svg">
<path d="M11.4092 19.573L11.3091 19.4229C10.6145 18.381 10.2672 17.86 9.80828 17.4828C9.40204 17.1489 8.93394 16.8984 8.43078 16.7456C7.86243 16.573 7.23629 16.573 5.984 16.573H4.60918C3.48907 16.573 2.92902 16.573 2.5012 16.355C2.12487 16.1633 1.81891 15.8573 1.62717 15.481C1.40918 15.0532 1.40918 14.4931 1.40918 13.373V4.773C1.40918 3.65289 1.40918 3.09284 1.62717 2.66502C1.81891 2.28869 2.12487 1.98273 2.5012 1.79099C2.92902 1.573 3.48907 1.573 4.60918 1.573H5.00918C7.24939 1.573 8.36949 1.573 9.22514 2.00897C9.97779 2.39247 10.5897 3.00439 10.9732 3.75704C11.4092 4.61268 11.4092 5.73279 11.4092 7.973M11.4092 19.573V7.973M11.4092 19.573L11.5092 19.4229C12.2039 18.381 12.5512 17.86 13.0101 17.4828C13.4163 17.1489 13.8844 16.8984 14.3876 16.7456C14.9559 16.573 15.5821 16.573 16.8344 16.573H18.2092C19.3293 16.573 19.8893 16.573 20.3172 16.355C20.6935 16.1633 20.9994 15.8573 21.1912 15.481C21.4092 15.0532 21.4092 14.4931 21.4092 13.373V4.773C21.4092 3.65289 21.4092 3.09284 21.1912 2.66502C20.9994 2.28869 20.6935 1.98273 20.3172 1.79099C19.8893 1.573 19.3293 1.573 18.2092 1.573H17.8092C15.569 1.573 14.4489 1.573 13.5932 2.00897C12.8406 2.39247 12.2286 3.00439 11.8452 3.75704C11.4092 4.61268 11.4092 5.73279 11.4092 7.973" stroke="white" stroke-width="1.5" stroke-linecap="round" stroke-linejoin="round"/>
</svg>
