<svg width="20" height="22" viewBox="0 0 20 22" fill="none" xmlns="http://www.w3.org/2000/svg">
<path d="M10.9092 0.936768H13.6092C15.2893 0.936768 16.1294 0.936768 16.7712 1.26375C17.3356 1.55137 17.7946 2.01031 18.0822 2.5748C18.4092 3.21653 18.4092 4.05661 18.4092 5.73677V16.1368C18.4092 17.8169 18.4092 18.657 18.0822 19.2987C17.7946 19.8632 17.3356 20.3222 16.7712 20.6098C16.1294 20.9368 15.2893 20.9368 13.6092 20.9368H7.20918C5.52902 20.9368 4.68894 20.9368 4.04721 20.6098C3.48272 20.3222 3.02378 19.8632 2.73616 19.2987C2.40918 18.657 2.40918 17.8169 2.40918 16.1368V15.4368M14.4092 11.9368H9.90918M14.4092 7.93677H10.9092M14.4092 15.9368H6.40918M4.40918 8.93677V3.43677C4.40918 2.60834 5.08075 1.93677 5.90918 1.93677C6.73761 1.93677 7.40918 2.60834 7.40918 3.43677V8.93677C7.40918 10.5936 6.06603 11.9368 4.40918 11.9368C2.75233 11.9368 1.40918 10.5936 1.40918 8.93677V4.93677" stroke="white" stroke-width="1.5" stroke-linecap="round" stroke-linejoin="round"/>
</svg>
