<svg width="23" height="22" viewBox="0 0 23 22" fill="none" xmlns="http://www.w3.org/2000/svg">
<path d="M7.90918 13.4215C7.90918 14.7102 8.95385 15.7549 10.2425 15.7549H12.4092C13.7899 15.7549 14.9092 14.6356 14.9092 13.2549C14.9092 11.8742 13.7899 10.7549 12.4092 10.7549H10.4092C9.02847 10.7549 7.90918 9.63559 7.90918 8.25488C7.90918 6.87417 9.02847 5.75488 10.4092 5.75488H12.5758C13.8645 5.75488 14.9092 6.79955 14.9092 8.08822M11.4092 4.25488V5.75488M11.4092 15.7549V17.2549M21.4092 10.7549C21.4092 16.2777 16.932 20.7549 11.4092 20.7549C5.88633 20.7549 1.40918 16.2777 1.40918 10.7549C1.40918 5.23204 5.88633 0.754883 11.4092 0.754883C16.932 0.754883 21.4092 5.23204 21.4092 10.7549Z" stroke="white" stroke-width="1.5" stroke-linecap="round" stroke-linejoin="round"/>
</svg>
