<svg width="28" height="28" viewBox="0 0 28 28" fill="none" xmlns="http://www.w3.org/2000/svg">
<path d="M15.7384 9.85425C15.0879 10.318 14.2919 10.5908 13.4322 10.5908C11.2356 10.5908 9.4549 8.81009 9.4549 6.6135C9.4549 4.41692 11.2356 2.63623 13.4322 2.63623C14.856 2.63623 16.1051 3.38443 16.8078 4.50912M7.18217 23.1898H10.1484C10.5352 23.1898 10.9195 23.2358 11.2945 23.3279L14.4286 24.0895C15.1087 24.2552 15.8171 24.2713 16.5043 24.1378L19.9696 23.4636C20.8851 23.2853 21.7272 22.847 22.3871 22.205L24.8389 19.82C25.539 19.14 25.539 18.0367 24.8389 17.3556C24.2085 16.7424 23.2103 16.6734 22.4971 17.1934L19.6397 19.2781C19.2305 19.5772 18.7325 19.7383 18.2204 19.7383H15.4611L17.2175 19.7382C18.2074 19.7382 19.0093 18.9582 19.0093 17.9952V17.6466C19.0093 16.847 18.4499 16.1498 17.6527 15.9565L14.9419 15.2973C14.5008 15.1903 14.049 15.1362 13.5948 15.1362C12.4985 15.1362 10.5139 16.044 10.5139 16.044L7.18217 17.4372M23.0913 7.74987C23.0913 9.94645 21.3106 11.7271 19.114 11.7271C16.9174 11.7271 15.1367 9.94645 15.1367 7.74987C15.1367 5.55328 16.9174 3.77259 19.114 3.77259C21.3106 3.77259 23.0913 5.55328 23.0913 7.74987ZM2.63672 16.9544L2.63672 23.5453C2.63672 24.1817 2.63672 24.5 2.76057 24.743C2.86952 24.9569 3.04336 25.1307 3.25718 25.2396C3.50027 25.3635 3.81848 25.3635 4.4549 25.3635H5.36399C6.00041 25.3635 6.31863 25.3635 6.56171 25.2396C6.77553 25.1307 6.94937 24.9569 7.05832 24.743C7.18217 24.5 7.18217 24.1817 7.18217 23.5453V16.9544C7.18217 16.318 7.18217 15.9998 7.05832 15.7567C6.94937 15.5429 6.77553 15.369 6.56171 15.2601C6.31863 15.1362 6.00042 15.1362 5.36399 15.1362L4.4549 15.1362C3.81848 15.1362 3.50027 15.1362 3.25718 15.2601C3.04336 15.369 2.86952 15.5429 2.76058 15.7567C2.63672 15.9998 2.63672 16.318 2.63672 16.9544Z" stroke="#2E90FA" stroke-width="2" stroke-linecap="round" stroke-linejoin="round"/>
</svg>
