<svg width="110" height="35" viewBox="0 0 110 35" fill="none" xmlns="http://www.w3.org/2000/svg">
<path d="M3.16368 34.3549C2.90469 34.6072 2.85463 34.971 3.33122 34.9276C5.66341 34.9243 16.787 34.939 19.0071 34.9223C19.9169 34.7287 18.9697 33.5927 18.5766 33.2436C17.9999 32.6762 17.4185 32.1129 16.8404 31.5468C15.7144 30.3287 14.2453 29.3288 13.4042 27.8857C12.9837 27.1635 13.0591 26.259 13.511 25.5748C13.999 24.8359 14.82 24.4608 15.5862 24.0803C16.3525 23.6999 17.1435 23.3101 17.9251 22.9316C18.7888 22.5131 19.6552 22.0999 20.5183 21.6794C21.8018 21.0553 23.2022 20.1522 23.6248 18.7004C23.7903 18.1197 23.7576 17.8073 23.7576 17.1038C23.7609 16.0372 23.7542 14.831 23.7576 13.6095C23.7729 13.0702 23.7229 12.2258 23.795 11.8187C23.8263 11.4462 24.2115 11.31 24.5672 11.2773C25.1473 11.1819 25.8128 11.3214 26.3574 11.0604C26.7726 10.8682 26.782 10.2521 26.4382 9.99442C25.0679 8.8904 19.2147 4.31546 16.0241 1.7917C15.5248 1.39722 15.0563 1.03144 14.5703 0.646964C14.009 0.132333 13.4009 -0.188727 12.6393 0.185732C10.4566 1.68424 8.45016 3.50313 6.34224 5.09975C4.39719 6.67368 2.38806 8.17552 0.477053 9.79284C0.0712221 10.1486 -0.287217 10.8448 0.338883 11.0978C0.892896 11.312 1.56772 11.1605 2.1204 11.3214C2.72247 11.4515 2.78655 12.0977 2.7979 12.6377C2.81592 15.3123 2.81392 19.1083 2.80457 20.7429C2.72381 21.4231 3.02217 22.1874 3.81915 22.15C4.37383 22.0979 4.80369 21.8276 5.42512 21.5906C6.39297 21.1868 7.81538 20.5934 8.62036 20.2577C9.04956 20.0868 9.47474 19.8879 9.56486 19.3839C9.97669 16.8108 8.65441 13.1683 11.6007 11.7372C13.477 10.6399 15.8312 11.4722 16.6449 13.4727C16.998 14.315 16.9686 15.2429 16.9659 16.1506C16.9499 16.8955 16.9946 17.6571 16.9379 18.398C16.9025 19.2464 16.1202 19.6222 15.3853 19.7971C12.2975 20.7476 9.29252 22.0679 6.61391 23.8821C3.29651 26.6388 6.99304 28.732 6.26548 31.2625C5.80825 32.7843 4.23299 33.4525 3.17102 34.3476L3.16501 34.3536L3.16368 34.3549Z" fill="white"/>
<path d="M37.8882 16V6.40352H34.9248V4.56099H42.9091V6.40352H39.9917V16H37.8882ZM46.3784 16.1843C45.7335 16.1843 45.1706 16.0409 44.6894 15.7543C44.2186 15.4677 43.8552 15.0685 43.5993 14.5567C43.3536 14.0449 43.2308 13.4461 43.2308 12.7602V7.64722H45.2422V12.5913C45.2422 12.9394 45.3087 13.2464 45.4418 13.5126C45.5851 13.7685 45.7847 13.9732 46.0406 14.1268C46.3068 14.2701 46.6036 14.3417 46.9312 14.3417C47.2587 14.3417 47.5505 14.2701 47.8064 14.1268C48.0623 13.9732 48.2619 13.7634 48.4052 13.4972C48.5485 13.2311 48.6202 12.9138 48.6202 12.5453V7.64722H50.6316V16H48.7276V14.3571L48.8965 14.6488C48.7021 15.1606 48.3796 15.5445 47.9292 15.8004C47.4891 16.0563 46.9721 16.1843 46.3784 16.1843ZM59.2532 16.1843C58.4241 16.1843 57.6768 15.9949 57.0114 15.6161C56.3563 15.2272 55.8394 14.7051 55.4607 14.05C55.0819 13.3846 54.8925 12.6374 54.8925 11.8083C54.8925 10.9791 55.0819 10.237 55.4607 9.58187C55.8394 8.92675 56.3563 8.40982 57.0114 8.03108C57.6768 7.65234 58.4241 7.46297 59.2532 7.46297C59.8469 7.46297 60.3996 7.57045 60.9115 7.78541C61.4233 7.99014 61.8634 8.27675 62.2319 8.64526C62.6107 9.00352 62.8819 9.43345 63.0457 9.93502L61.28 10.7027C61.1264 10.2831 60.8654 9.94526 60.4969 9.68935C60.1386 9.43345 59.7241 9.30549 59.2532 9.30549C58.813 9.30549 58.4189 9.41297 58.0709 9.62794C57.7331 9.8429 57.467 10.1397 57.2725 10.5185C57.078 10.8972 56.9807 11.3323 56.9807 11.8236C56.9807 12.315 57.078 12.75 57.2725 13.1287C57.467 13.5075 57.7331 13.8043 58.0709 14.0193C58.4189 14.2342 58.813 14.3417 59.2532 14.3417C59.7343 14.3417 60.154 14.2138 60.5122 13.9579C60.8705 13.702 61.1264 13.359 61.28 12.9291L63.0457 13.7276C62.8819 14.1984 62.6158 14.6232 62.2473 15.002C61.8788 15.3705 61.4386 15.6622 60.9268 15.8772C60.415 16.0819 59.8571 16.1843 59.2532 16.1843ZM67.0754 16.1843C66.4919 16.1843 65.9852 16.087 65.5553 15.8925C65.1254 15.698 64.7927 15.4217 64.5573 15.0634C64.3218 14.6949 64.2041 14.2701 64.2041 13.789C64.2041 13.3283 64.3065 12.9189 64.5112 12.5606C64.7159 12.1921 65.0333 11.885 65.4632 11.6394C65.8931 11.3937 66.4356 11.2197 67.0908 11.1173L69.8238 10.672V12.2075L67.4746 12.6067C67.0754 12.6783 66.7785 12.8063 66.5841 12.9905C66.3896 13.1748 66.2923 13.4153 66.2923 13.7122C66.2923 13.9988 66.3998 14.2291 66.6148 14.4031C66.84 14.5669 67.1163 14.6488 67.4439 14.6488C67.8636 14.6488 68.2321 14.5618 68.5494 14.3878C68.877 14.2035 69.1278 13.9528 69.3018 13.6354C69.486 13.3181 69.5782 12.9701 69.5782 12.5913V10.4417C69.5782 10.0834 69.4349 9.7866 69.1482 9.55116C68.8719 9.30549 68.5034 9.18266 68.0427 9.18266C67.6128 9.18266 67.2289 9.30038 66.8911 9.53581C66.5636 9.76101 66.323 10.063 66.1695 10.4417L64.5266 9.64329C64.6904 9.20313 64.9463 8.82439 65.2943 8.50707C65.6526 8.17951 66.0722 7.9236 66.5534 7.73935C67.0345 7.5551 67.5565 7.46297 68.1195 7.46297C68.8053 7.46297 69.4093 7.59092 69.9313 7.84683C70.4534 8.0925 70.8577 8.44053 71.1443 8.89093C71.4412 9.33108 71.5896 9.84802 71.5896 10.4417V16H69.6856V14.572L70.1156 14.5413C69.9006 14.8996 69.6447 15.2016 69.3478 15.4472C69.051 15.6827 68.7132 15.8669 68.3345 16C67.9557 16.1228 67.536 16.1843 67.0754 16.1843ZM73.4487 16V7.64722H75.3373V9.58187L75.1223 9.25943C75.2758 8.65549 75.5829 8.2051 76.0436 7.90825C76.5042 7.6114 77.0467 7.46297 77.6711 7.46297C78.3569 7.46297 78.9609 7.6421 79.4829 8.00037C80.005 8.35864 80.3428 8.82951 80.4963 9.41297L79.9282 9.45904C80.1841 8.79368 80.568 8.29722 81.0798 7.96966C81.5916 7.63187 82.1802 7.46297 82.8455 7.46297C83.4392 7.46297 83.9664 7.59604 84.427 7.86218C84.8979 8.12833 85.2664 8.50195 85.5326 8.98305C85.7987 9.45392 85.9318 10.0016 85.9318 10.626V16H83.9203V11.102C83.9203 10.7335 83.8538 10.4161 83.7207 10.15C83.5877 9.88384 83.4034 9.67912 83.168 9.53581C82.9325 9.38227 82.6459 9.30549 82.3081 9.30549C81.9908 9.30549 81.7093 9.38227 81.4636 9.53581C81.218 9.67912 81.0286 9.88384 80.8955 10.15C80.7625 10.4161 80.6959 10.7335 80.6959 11.102V16H78.6845V11.102C78.6845 10.7335 78.618 10.4161 78.4849 10.15C78.3518 9.88384 78.1625 9.67912 77.9168 9.53581C77.6814 9.38227 77.3999 9.30549 77.0723 9.30549C76.755 9.30549 76.4735 9.38227 76.2278 9.53581C75.9821 9.67912 75.7928 9.88384 75.6597 10.15C75.5266 10.4161 75.4601 10.7335 75.4601 11.102V16H73.4487ZM87.6335 16V7.64722H89.6449V16H87.6335ZM87.6335 6.71061V4.56099H89.6449V6.71061H87.6335ZM91.502 16V7.64722H93.3906V9.29014L93.2371 8.99841C93.4316 8.49683 93.7489 8.11809 94.1891 7.86218C94.6395 7.59604 95.1615 7.46297 95.7552 7.46297C96.3694 7.46297 96.9119 7.59604 97.3828 7.86218C97.8639 8.12833 98.2375 8.50195 98.5036 8.98305C98.7698 9.45392 98.9028 10.0016 98.9028 10.626V16H96.8914V11.102C96.8914 10.7335 96.8198 10.4161 96.6765 10.15C96.5332 9.88384 96.3336 9.67912 96.0776 9.53581C95.832 9.38227 95.5402 9.30549 95.2024 9.30549C94.8749 9.30549 94.5832 9.38227 94.3272 9.53581C94.0713 9.67912 93.8717 9.88384 93.7284 10.15C93.5851 10.4161 93.5135 10.7335 93.5135 11.102V16H91.502ZM104.688 16.1843C103.869 16.1843 103.122 15.9949 102.446 15.6161C101.781 15.2374 101.249 14.7205 100.849 14.0653C100.46 13.4102 100.266 12.663 100.266 11.8236C100.266 10.9842 100.46 10.237 100.849 9.58187C101.249 8.92675 101.781 8.40982 102.446 8.03108C103.112 7.65234 103.859 7.46297 104.688 7.46297C105.507 7.46297 106.249 7.65234 106.914 8.03108C107.58 8.40982 108.107 8.92675 108.496 9.58187C108.895 10.2268 109.095 10.974 109.095 11.8236C109.095 12.663 108.895 13.4102 108.496 14.0653C108.097 14.7205 107.564 15.2374 106.899 15.6161C106.234 15.9949 105.497 16.1843 104.688 16.1843ZM104.688 14.3417C105.138 14.3417 105.532 14.2342 105.87 14.0193C106.218 13.8043 106.49 13.5075 106.684 13.1287C106.889 12.7398 106.991 12.3047 106.991 11.8236C106.991 11.3323 106.889 10.9023 106.684 10.5338C106.49 10.1551 106.218 9.85825 105.87 9.64329C105.532 9.41809 105.138 9.30549 104.688 9.30549C104.227 9.30549 103.823 9.41809 103.475 9.64329C103.127 9.85825 102.851 10.1551 102.646 10.5338C102.451 10.9023 102.354 11.3323 102.354 11.8236C102.354 12.3047 102.451 12.7398 102.646 13.1287C102.851 13.5075 103.127 13.8043 103.475 14.0193C103.823 14.2342 104.227 14.3417 104.688 14.3417Z" fill="white"/>
<path d="M38.5056 32.1384C37.9221 32.1384 37.4154 32.0412 36.9855 31.8467C36.5556 31.6522 36.2229 31.3758 35.9875 31.0175C35.7521 30.649 35.6343 30.2242 35.6343 29.7431C35.6343 29.2825 35.7367 28.8731 35.9414 28.5148C36.1462 28.1463 36.4635 27.8392 36.8934 27.5935C37.3233 27.3479 37.8658 27.1738 38.521 27.0715L41.254 26.6262V28.1616L38.9048 28.5608C38.5056 28.6325 38.2088 28.7605 38.0143 28.9447C37.8198 29.129 37.7225 29.3695 37.7225 29.6664C37.7225 29.953 37.83 30.1833 38.045 30.3573C38.2702 30.5211 38.5466 30.603 38.8741 30.603C39.2938 30.603 39.6623 30.516 39.9796 30.342C40.3072 30.1577 40.558 29.9069 40.732 29.5896C40.9162 29.2723 41.0084 28.9242 41.0084 28.5455V26.3959C41.0084 26.0376 40.8651 25.7408 40.5785 25.5053C40.3021 25.2597 39.9336 25.1368 39.4729 25.1368C39.043 25.1368 38.6592 25.2545 38.3214 25.49C37.9938 25.7152 37.7532 26.0171 37.5997 26.3959L35.9568 25.5975C36.1206 25.1573 36.3765 24.7786 36.7245 24.4612C37.0828 24.1337 37.5025 23.8778 37.9836 23.6935C38.4647 23.5093 38.9867 23.4171 39.5497 23.4171C40.2355 23.4171 40.8395 23.5451 41.3615 23.801C41.8836 24.0467 42.2879 24.3947 42.5745 24.8451C42.8714 25.2852 43.0198 25.8022 43.0198 26.3959V31.9542H41.1159V30.5262L41.5458 30.4955C41.3308 30.8538 41.0749 31.1557 40.7781 31.4014C40.4812 31.6368 40.1434 31.8211 39.7647 31.9542C39.3859 32.077 38.9662 32.1384 38.5056 32.1384ZM51.6307 32.1384C50.8016 32.1384 50.0543 31.949 49.389 31.5703C48.7339 31.1813 48.2169 30.6593 47.8382 30.0042C47.4594 29.3388 47.2701 28.5916 47.2701 27.7624C47.2701 26.9333 47.4594 26.1912 47.8382 25.536C48.2169 24.8809 48.7339 24.364 49.389 23.9852C50.0543 23.6065 50.8016 23.4171 51.6307 23.4171C52.2244 23.4171 52.7772 23.5246 53.289 23.7396C53.8008 23.9443 54.241 24.2309 54.6095 24.5994C54.9882 24.9577 55.2595 25.3876 55.4232 25.8892L53.6575 26.6569C53.504 26.2372 53.2429 25.8994 52.8744 25.6435C52.5162 25.3876 52.1016 25.2597 51.6307 25.2597C51.1906 25.2597 50.7965 25.3671 50.4484 25.5821C50.1106 25.7971 49.8445 26.0939 49.65 26.4727C49.4555 26.8514 49.3583 27.2864 49.3583 27.7778C49.3583 28.2691 49.4555 28.7042 49.65 29.0829C49.8445 29.4616 50.1106 29.7585 50.4484 29.9734C50.7965 30.1884 51.1906 30.2959 51.6307 30.2959C52.1118 30.2959 52.5315 30.1679 52.8898 29.912C53.248 29.6561 53.504 29.3132 53.6575 28.8833L55.4232 29.6817C55.2595 30.1526 54.9933 30.5774 54.6248 30.9561C54.2563 31.3246 53.8162 31.6164 53.3043 31.8313C52.7925 32.0361 52.2347 32.1384 51.6307 32.1384ZM59.4529 32.1384C58.8695 32.1384 58.3628 32.0412 57.9328 31.8467C57.5029 31.6522 57.1702 31.3758 56.9348 31.0175C56.6994 30.649 56.5817 30.2242 56.5817 29.7431C56.5817 29.2825 56.684 28.8731 56.8887 28.5148C57.0935 28.1463 57.4108 27.8392 57.8407 27.5935C58.2706 27.3479 58.8132 27.1738 59.4683 27.0715L62.2014 26.6262V28.1616L59.8521 28.5608C59.4529 28.6325 59.1561 28.7605 58.9616 28.9447C58.7671 29.129 58.6699 29.3695 58.6699 29.6664C58.6699 29.953 58.7773 30.1833 58.9923 30.3573C59.2175 30.5211 59.4939 30.603 59.8214 30.603C60.2411 30.603 60.6096 30.516 60.9269 30.342C61.2545 30.1577 61.5053 29.9069 61.6793 29.5896C61.8636 29.2723 61.9557 28.9242 61.9557 28.5455V26.3959C61.9557 26.0376 61.8124 25.7408 61.5258 25.5053C61.2494 25.2597 60.8809 25.1368 60.4203 25.1368C59.9903 25.1368 59.6065 25.2545 59.2687 25.49C58.9411 25.7152 58.7006 26.0171 58.547 26.3959L56.9041 25.5975C57.0679 25.1573 57.3238 24.7786 57.6718 24.4612C58.0301 24.1337 58.4498 23.8778 58.9309 23.6935C59.412 23.5093 59.934 23.4171 60.497 23.4171C61.1829 23.4171 61.7868 23.5451 62.3088 23.801C62.8309 24.0467 63.2352 24.3947 63.5218 24.8451C63.8187 25.2852 63.9671 25.8022 63.9671 26.3959V31.9542H62.0632V30.5262L62.4931 30.4955C62.2781 30.8538 62.0222 31.1557 61.7254 31.4014C61.4285 31.6368 61.0907 31.8211 60.712 31.9542C60.3332 32.077 59.9136 32.1384 59.4529 32.1384ZM69.0045 32.1384C68.114 32.1384 67.336 31.9286 66.6707 31.5089C66.0156 31.079 65.5652 30.5006 65.3195 29.7738L66.8242 29.0522C67.0392 29.5231 67.336 29.8916 67.7148 30.1577C68.1038 30.4238 68.5337 30.5569 69.0045 30.5569C69.3731 30.5569 69.6648 30.475 69.8797 30.3112C70.0947 30.1475 70.2022 29.9325 70.2022 29.6664C70.2022 29.5026 70.1561 29.3695 70.064 29.2671C69.9821 29.1545 69.8644 29.0624 69.7108 28.9908C69.5675 28.9089 69.4089 28.8423 69.2349 28.7912L67.8683 28.4073C67.162 28.2026 66.6246 27.8904 66.2561 27.4707C65.8978 27.051 65.7187 26.5545 65.7187 25.9813C65.7187 25.4695 65.8467 25.0242 66.1026 24.6455C66.3687 24.2565 66.7321 23.9545 67.1927 23.7396C67.6636 23.5246 68.201 23.4171 68.8049 23.4171C69.5931 23.4171 70.2892 23.6065 70.8931 23.9852C71.4971 24.364 71.927 24.8963 72.1829 25.5821L70.6475 26.3038C70.5042 25.925 70.2636 25.623 69.9258 25.3978C69.588 25.1726 69.2093 25.06 68.7896 25.06C68.4518 25.06 68.1856 25.1368 67.9912 25.2904C67.7967 25.4439 67.6994 25.6435 67.6994 25.8892C67.6994 26.0427 67.7404 26.1758 67.8223 26.2884C67.9042 26.401 68.0167 26.4931 68.1601 26.5648C68.3136 26.6364 68.4876 26.703 68.6821 26.7644L70.0179 27.1636C70.7038 27.3683 71.2309 27.6754 71.5994 28.0849C71.9782 28.4943 72.1675 28.9959 72.1675 29.5896C72.1675 30.0912 72.0345 30.5364 71.7683 30.9254C71.5022 31.3042 71.1337 31.601 70.6628 31.816C70.192 32.0309 69.6392 32.1384 69.0045 32.1384ZM76.2468 32.1384C75.6633 32.1384 75.1566 32.0412 74.7267 31.8467C74.2968 31.6522 73.9641 31.3758 73.7287 31.0175C73.4932 30.649 73.3755 30.2242 73.3755 29.7431C73.3755 29.2825 73.4779 28.8731 73.6826 28.5148C73.8873 28.1463 74.2046 27.8392 74.6346 27.5935C75.0645 27.3479 75.607 27.1738 76.2621 27.0715L78.9952 26.6262V28.1616L76.646 28.5608C76.2468 28.6325 75.9499 28.7605 75.7554 28.9447C75.5609 29.129 75.4637 29.3695 75.4637 29.6664C75.4637 29.953 75.5712 30.1833 75.7861 30.3573C76.0113 30.5211 76.2877 30.603 76.6153 30.603C77.035 30.603 77.4035 30.516 77.7208 30.342C78.0484 30.1577 78.2991 29.9069 78.4732 29.5896C78.6574 29.2723 78.7495 28.9242 78.7495 28.5455V26.3959C78.7495 26.0376 78.6062 25.7408 78.3196 25.5053C78.0432 25.2597 77.6747 25.1368 77.2141 25.1368C76.7842 25.1368 76.4003 25.2545 76.0625 25.49C75.735 25.7152 75.4944 26.0171 75.3409 26.3959L73.6979 25.5975C73.8617 25.1573 74.1176 24.7786 74.4657 24.4612C74.8239 24.1337 75.2436 23.8778 75.7247 23.6935C76.2058 23.5093 76.7279 23.4171 77.2909 23.4171C77.9767 23.4171 78.5806 23.5451 79.1027 23.801C79.6247 24.0467 80.0291 24.3947 80.3157 24.8451C80.6125 25.2852 80.761 25.8022 80.761 26.3959V31.9542H78.857V30.5262L79.2869 30.4955C79.072 30.8538 78.8161 31.1557 78.5192 31.4014C78.2224 31.6368 77.8846 31.8211 77.5058 31.9542C77.1271 32.077 76.7074 32.1384 76.2468 32.1384Z" fill="white"/>
</svg>
