<svg width="151" height="76" viewBox="0 0 151 76" fill="none" xmlns="http://www.w3.org/2000/svg">
<g opacity="0.55">
<path d="M61.9486 41.9307V30.1229H58.3024V27.8558H68.1265V30.1229H64.5369V41.9307H61.9486ZM72.3953 42.1574C71.6018 42.1574 70.9091 41.981 70.3171 41.6284C69.7377 41.2757 69.2906 40.7845 68.9757 40.1548C68.6735 39.525 68.5223 38.7882 68.5223 37.9444V31.6532H70.9972V37.7365C70.9972 38.1648 71.0791 38.5426 71.2428 38.8701C71.4192 39.185 71.6648 39.4369 71.9796 39.6258C72.3071 39.8021 72.6724 39.8903 73.0754 39.8903C73.4784 39.8903 73.8374 39.8021 74.1523 39.6258C74.4671 39.4369 74.7127 39.1787 74.8891 38.8512C75.0654 38.5237 75.1536 38.1333 75.1536 37.6799V31.6532H77.6285V41.9307H75.2858V39.9092L75.4936 40.2681C75.2543 40.8979 74.8576 41.3702 74.3034 41.6851C73.7618 41.9999 73.1258 42.1574 72.3953 42.1574ZM88.2368 42.1574C87.2166 42.1574 86.2971 41.9244 85.4785 41.4584C84.6724 40.9797 84.0363 40.3374 83.5703 39.5313C83.1043 38.7126 82.8713 37.7932 82.8713 36.773C82.8713 35.7528 83.1043 34.8397 83.5703 34.0336C84.0363 33.2275 84.6724 32.5915 85.4785 32.1255C86.2971 31.6595 87.2166 31.4265 88.2368 31.4265C88.9673 31.4265 89.6474 31.5587 90.2771 31.8232C90.9069 32.0751 91.4485 32.4278 91.9019 32.8812C92.3679 33.322 92.7017 33.851 92.9032 34.4681L90.7306 35.4128C90.5416 34.8964 90.2205 34.4807 89.767 34.1659C89.3262 33.851 88.8161 33.6935 88.2368 33.6935C87.6952 33.6935 87.2103 33.8258 86.782 34.0903C86.3664 34.3548 86.0389 34.72 85.7996 35.1861C85.5603 35.6521 85.4407 36.1874 85.4407 36.7919C85.4407 37.3965 85.5603 37.9318 85.7996 38.3978C86.0389 38.8638 86.3664 39.229 86.782 39.4935C87.2103 39.758 87.6952 39.8903 88.2368 39.8903C88.8287 39.8903 89.3451 39.7328 89.7859 39.418C90.2268 39.1031 90.5416 38.6812 90.7306 38.1522L92.9032 39.1346C92.7017 39.7139 92.3742 40.2366 91.9208 40.7027C91.4674 41.1561 90.9258 41.515 90.296 41.7795C89.6663 42.0314 88.9799 42.1574 88.2368 42.1574ZM97.8614 42.1574C97.1435 42.1574 96.5201 42.0377 95.9911 41.7984C95.4621 41.5591 95.0528 41.219 94.7631 40.7782C94.4734 40.3248 94.3285 39.8021 94.3285 39.2101C94.3285 38.6434 94.4545 38.1396 94.7064 37.6988C94.9583 37.2453 95.3487 36.8675 95.8777 36.5652C96.4067 36.2629 97.0742 36.0488 97.8803 35.9229L101.243 35.375V37.2642L98.3526 37.7554C97.8614 37.8436 97.4962 38.001 97.2569 38.2277C97.0176 38.4544 96.8979 38.7504 96.8979 39.1157C96.8979 39.4683 97.0302 39.7517 97.2947 39.9658C97.5717 40.1674 97.9118 40.2681 98.3149 40.2681C98.8312 40.2681 99.2847 40.1611 99.6751 39.947C100.078 39.7202 100.387 39.4117 100.601 39.0212C100.828 38.6308 100.941 38.2025 100.941 37.7365V35.0916C100.941 34.6508 100.765 34.2855 100.412 33.9958C100.072 33.6935 99.6184 33.5424 99.0517 33.5424C98.5227 33.5424 98.0504 33.6872 97.6347 33.9769C97.2317 34.254 96.9357 34.6256 96.7468 35.0916L94.7253 34.1092C94.9268 33.5676 95.2417 33.1016 95.6699 32.7111C96.1107 32.3081 96.6271 31.9932 97.2191 31.7665C97.8111 31.5398 98.4534 31.4265 99.1461 31.4265C99.99 31.4265 100.733 31.5839 101.375 31.8988C102.018 32.201 102.515 32.6293 102.868 33.1835C103.233 33.725 103.416 34.3611 103.416 35.0916V41.9307H101.073V40.1737L101.602 40.1359C101.338 40.5767 101.023 40.9483 100.658 41.2505C100.292 41.5402 99.8766 41.7669 99.4106 41.9307C98.9446 42.0818 98.4282 42.1574 97.8614 42.1574ZM105.703 41.9307V31.6532H108.027V34.0336L107.763 33.6369C107.951 32.8938 108.329 32.3396 108.896 31.9743C109.463 31.6091 110.13 31.4265 110.899 31.4265C111.743 31.4265 112.486 31.6469 113.128 32.0877C113.77 32.5285 114.186 33.1079 114.375 33.8258L113.676 33.8825C113.991 33.0638 114.463 32.4529 115.093 32.0499C115.723 31.6343 116.447 31.4265 117.265 31.4265C117.996 31.4265 118.645 31.5902 119.211 31.9177C119.791 32.2451 120.244 32.7048 120.572 33.2968C120.899 33.8762 121.063 34.55 121.063 35.3183V41.9307H118.588V35.904C118.588 35.4505 118.506 35.0601 118.342 34.7326C118.179 34.4052 117.952 34.1533 117.662 33.9769C117.373 33.788 117.02 33.6935 116.604 33.6935C116.214 33.6935 115.867 33.788 115.565 33.9769C115.263 34.1533 115.03 34.4052 114.866 34.7326C114.702 35.0601 114.621 35.4505 114.621 35.904V41.9307H112.146V35.904C112.146 35.4505 112.064 35.0601 111.9 34.7326C111.736 34.4052 111.503 34.1533 111.201 33.9769C110.911 33.788 110.565 33.6935 110.162 33.6935C109.771 33.6935 109.425 33.788 109.123 33.9769C108.821 34.1533 108.588 34.4052 108.424 34.7326C108.26 35.0601 108.178 35.4505 108.178 35.904V41.9307H105.703ZM123.157 41.9307V31.6532H125.632V41.9307H123.157ZM123.157 30.5007V27.8558H125.632V30.5007H123.157ZM127.917 41.9307V31.6532H130.24V33.6747L130.052 33.3157C130.291 32.6985 130.681 32.2325 131.223 31.9177C131.777 31.5902 132.419 31.4265 133.15 31.4265C133.906 31.4265 134.573 31.5902 135.153 31.9177C135.744 32.2451 136.204 32.7048 136.532 33.2968C136.859 33.8762 137.023 34.55 137.023 35.3183V41.9307H134.548V35.904C134.548 35.4505 134.46 35.0601 134.283 34.7326C134.107 34.4052 133.862 34.1533 133.547 33.9769C133.244 33.788 132.885 33.6935 132.47 33.6935C132.067 33.6935 131.708 33.788 131.393 33.9769C131.078 34.1533 130.832 34.4052 130.656 34.7326C130.48 35.0601 130.392 35.4505 130.392 35.904V41.9307H127.917ZM144.141 42.1574C143.133 42.1574 142.214 41.9244 141.383 41.4584C140.564 40.9923 139.909 40.3563 139.418 39.5502C138.939 38.7441 138.7 37.8247 138.7 36.7919C138.7 35.7591 138.939 34.8397 139.418 34.0336C139.909 33.2275 140.564 32.5915 141.383 32.1255C142.201 31.6595 143.121 31.4265 144.141 31.4265C145.149 31.4265 146.062 31.6595 146.88 32.1255C147.699 32.5915 148.348 33.2275 148.826 34.0336C149.318 34.8271 149.563 35.7465 149.563 36.7919C149.563 37.8247 149.318 38.7441 148.826 39.5502C148.335 40.3563 147.68 40.9923 146.862 41.4584C146.043 41.9244 145.136 42.1574 144.141 42.1574ZM144.141 39.8903C144.695 39.8903 145.18 39.758 145.596 39.4935C146.024 39.229 146.358 38.8638 146.597 38.3978C146.849 37.9192 146.975 37.3839 146.975 36.7919C146.975 36.1874 146.849 35.6584 146.597 35.2049C146.358 34.7389 146.024 34.3737 145.596 34.1092C145.18 33.8321 144.695 33.6935 144.141 33.6935C143.574 33.6935 143.077 33.8321 142.649 34.1092C142.22 34.3737 141.88 34.7389 141.628 35.2049C141.389 35.6584 141.269 36.1874 141.269 36.7919C141.269 37.3839 141.389 37.9192 141.628 38.3978C141.88 38.8638 142.22 39.229 142.649 39.4935C143.077 39.758 143.574 39.8903 144.141 39.8903Z" fill="white"/>
<path d="M62.1603 61.7877C61.4424 61.7877 60.819 61.6681 60.29 61.4288C59.761 61.1895 59.3517 60.8494 59.062 60.4086C58.7723 59.9552 58.6275 59.4325 58.6275 58.8405C58.6275 58.2737 58.7534 57.7699 59.0053 57.3291C59.2572 56.8757 59.6477 56.4979 60.1766 56.1956C60.7056 55.8933 61.3732 55.6792 62.1792 55.5532L65.5421 55.0053V56.8946L62.6516 57.3858C62.1603 57.474 61.7951 57.6314 61.5558 57.8581C61.3165 58.0848 61.1968 58.3808 61.1968 58.7461C61.1968 59.0987 61.3291 59.3821 61.5936 59.5962C61.8707 59.7977 62.2107 59.8985 62.6138 59.8985C63.1302 59.8985 63.5836 59.7914 63.974 59.5773C64.3771 59.3506 64.6856 59.042 64.8998 58.6516C65.1265 58.2612 65.2398 57.8329 65.2398 57.3669V54.722C65.2398 54.2811 65.0635 53.9159 64.7108 53.6262C64.3708 53.3239 63.9173 53.1728 63.3506 53.1728C62.8216 53.1728 62.3493 53.3176 61.9336 53.6073C61.5306 53.8844 61.2346 54.2559 61.0457 54.722L59.0242 53.7396C59.2257 53.198 59.5406 52.732 59.9688 52.3415C60.4096 51.9385 60.926 51.6236 61.518 51.3969C62.11 51.1702 62.7523 51.0568 63.445 51.0568C64.2889 51.0568 65.032 51.2143 65.6743 51.5291C66.3167 51.8314 66.8142 52.2596 67.1669 52.8138C67.5321 53.3554 67.7147 53.9915 67.7147 54.722V61.561H65.3721V59.804L65.9011 59.7663C65.6366 60.2071 65.3217 60.5786 64.9564 60.8809C64.5912 61.1706 64.1755 61.3973 63.7095 61.561C63.2435 61.7122 62.7271 61.7877 62.1603 61.7877ZM78.3099 61.7877C77.2897 61.7877 76.3702 61.5547 75.5516 61.0887C74.7455 60.6101 74.1094 59.9678 73.6434 59.1617C73.1774 58.343 72.9444 57.4236 72.9444 56.4034C72.9444 55.3832 73.1774 54.4701 73.6434 53.664C74.1094 52.8579 74.7455 52.2219 75.5516 51.7558C76.3702 51.2898 77.2897 51.0568 78.3099 51.0568C79.0404 51.0568 79.7205 51.1891 80.3503 51.4536C80.98 51.7055 81.5216 52.0581 81.975 52.5115C82.441 52.9524 82.7748 53.4814 82.9763 54.0985L80.8037 55.0431C80.6148 54.5267 80.2936 54.1111 79.8402 53.7962C79.3993 53.4814 78.8892 53.3239 78.3099 53.3239C77.7683 53.3239 77.2834 53.4562 76.8551 53.7207C76.4395 53.9852 76.112 54.3504 75.8727 54.8164C75.6334 55.2824 75.5138 55.8177 75.5138 56.4223C75.5138 57.0268 75.6334 57.5621 75.8727 58.0281C76.112 58.4942 76.4395 58.8594 76.8551 59.1239C77.2834 59.3884 77.7683 59.5206 78.3099 59.5206C78.9018 59.5206 79.4182 59.3632 79.8591 59.0483C80.2999 58.7335 80.6148 58.3115 80.8037 57.7825L82.9763 58.7649C82.7748 59.3443 82.4473 59.867 81.9939 60.333C81.5405 60.7864 80.9989 61.1454 80.3691 61.4099C79.7394 61.6618 79.053 61.7877 78.3099 61.7877ZM87.9345 61.7877C87.2166 61.7877 86.5932 61.6681 86.0642 61.4288C85.5352 61.1895 85.1259 60.8494 84.8362 60.4086C84.5465 59.9552 84.4017 59.4325 84.4017 58.8405C84.4017 58.2737 84.5276 57.7699 84.7795 57.3291C85.0314 56.8757 85.4218 56.4979 85.9508 56.1956C86.4798 55.8933 87.1474 55.6792 87.9534 55.5532L91.3163 55.0053V56.8946L88.4258 57.3858C87.9345 57.474 87.5693 57.6314 87.33 57.8581C87.0907 58.0848 86.971 58.3808 86.971 58.7461C86.971 59.0987 87.1033 59.3821 87.3678 59.5962C87.6449 59.7977 87.9849 59.8985 88.388 59.8985C88.9044 59.8985 89.3578 59.7914 89.7482 59.5773C90.1513 59.3506 90.4598 59.042 90.674 58.6516C90.9007 58.2612 91.014 57.8329 91.014 57.3669V54.722C91.014 54.2811 90.8377 53.9159 90.485 53.6262C90.145 53.3239 89.6915 53.1728 89.1248 53.1728C88.5958 53.1728 88.1235 53.3176 87.7078 53.6073C87.3048 53.8844 87.0088 54.2559 86.8199 54.722L84.7984 53.7396C84.9999 53.198 85.3148 52.732 85.743 52.3415C86.1838 51.9385 86.7002 51.6236 87.2922 51.3969C87.8842 51.1702 88.5265 51.0568 89.2192 51.0568C90.0631 51.0568 90.8062 51.2143 91.4485 51.5291C92.0909 51.8314 92.5884 52.2596 92.9411 52.8138C93.3063 53.3554 93.4889 53.9915 93.4889 54.722V61.561H91.1463V59.804L91.6753 59.7663C91.4108 60.2071 91.0959 60.5786 90.7306 60.8809C90.3654 61.1706 89.9497 61.3973 89.4837 61.561C89.0177 61.7122 88.5013 61.7877 87.9345 61.7877ZM99.6871 61.7877C98.5914 61.7877 97.6342 61.5295 96.8155 61.0132C96.0094 60.4842 95.4552 59.7725 95.1529 58.8783L97.0044 57.9904C97.2689 58.5697 97.6342 59.0231 98.1002 59.3506C98.5788 59.6781 99.1078 59.8418 99.6871 59.8418C100.141 59.8418 100.5 59.7411 100.764 59.5395C101.029 59.338 101.161 59.0735 101.161 58.7461C101.161 58.5445 101.104 58.3808 100.991 58.2549C100.89 58.1163 100.745 58.003 100.556 57.9148C100.38 57.814 100.185 57.7322 99.9705 57.6692L98.2891 57.1969C97.42 56.945 96.7588 56.5608 96.3054 56.0444C95.8646 55.528 95.6442 54.9172 95.6442 54.2119C95.6442 53.5821 95.8016 53.0342 96.1165 52.5682C96.4439 52.0896 96.8911 51.7181 97.4578 51.4536C98.0372 51.1891 98.6984 51.0568 99.4415 51.0568C100.411 51.0568 101.268 51.2898 102.011 51.7558C102.754 52.2219 103.283 52.8768 103.598 53.7207L101.709 54.6086C101.532 54.1426 101.236 53.771 100.821 53.494C100.405 53.2169 99.939 53.0783 99.4226 53.0783C99.007 53.0783 98.6795 53.1728 98.4402 53.3617C98.2009 53.5506 98.0813 53.7962 98.0813 54.0985C98.0813 54.2874 98.1317 54.4512 98.2324 54.5897C98.3332 54.7283 98.4717 54.8416 98.6481 54.9298C98.837 55.0179 99.0511 55.0998 99.2904 55.1754L100.934 55.6666C101.778 55.9185 102.427 56.2963 102.88 56.8001C103.346 57.3039 103.579 57.9211 103.579 58.6516C103.579 59.2687 103.415 59.8166 103.088 60.2952C102.76 60.7613 102.307 61.1265 101.728 61.391C101.148 61.6555 100.468 61.7877 99.6871 61.7877ZM108.598 61.7877C107.88 61.7877 107.257 61.6681 106.728 61.4288C106.199 61.1895 105.79 60.8494 105.5 60.4086C105.21 59.9552 105.065 59.4325 105.065 58.8405C105.065 58.2737 105.191 57.7699 105.443 57.3291C105.695 56.8757 106.085 56.4979 106.614 56.1956C107.143 55.8933 107.811 55.6792 108.617 55.5532L111.98 55.0053V56.8946L109.089 57.3858C108.598 57.474 108.233 57.6314 107.994 57.8581C107.754 58.0848 107.635 58.3808 107.635 58.7461C107.635 59.0987 107.767 59.3821 108.031 59.5962C108.309 59.7977 108.649 59.8985 109.052 59.8985C109.568 59.8985 110.021 59.7914 110.412 59.5773C110.815 59.3506 111.123 59.042 111.338 58.6516C111.564 58.2612 111.678 57.8329 111.678 57.3669V54.722C111.678 54.2811 111.501 53.9159 111.149 53.6262C110.809 53.3239 110.355 53.1728 109.788 53.1728C109.259 53.1728 108.787 53.3176 108.371 53.6073C107.968 53.8844 107.672 54.2559 107.484 54.722L105.462 53.7396C105.664 53.198 105.978 52.732 106.407 52.3415C106.847 51.9385 107.364 51.6236 107.956 51.3969C108.548 51.1702 109.19 51.0568 109.883 51.0568C110.727 51.0568 111.47 51.2143 112.112 51.5291C112.755 51.8314 113.252 52.2596 113.605 52.8138C113.97 53.3554 114.153 53.9915 114.153 54.722V61.561H111.81V59.804L112.339 59.7663C112.074 60.2071 111.76 60.5786 111.394 60.8809C111.029 61.1706 110.613 61.3973 110.147 61.561C109.681 61.7122 109.165 61.7877 108.598 61.7877Z" fill="white"/>
<path d="M6.81036 73.9055C6.25285 74.4487 6.14509 75.2318 7.17102 75.1384C12.1915 75.1312 36.137 75.1628 40.916 75.1269C42.8745 74.7102 40.8356 72.2646 39.9893 71.5131C38.7478 70.2918 37.4963 69.079 36.2519 67.8606C33.8279 65.2383 30.6654 63.0858 28.8549 59.9793C27.9497 58.4246 28.112 56.4777 29.0848 55.0049C30.1352 53.4142 31.9025 52.6067 33.5521 51.7877C35.2016 50.9687 36.9043 50.1295 38.5869 49.3148C40.4462 48.4139 42.3112 47.5245 44.1691 46.6192C46.9322 45.2758 49.9468 43.3317 50.8563 40.2065C51.2127 38.9564 51.1423 38.2839 51.1423 36.7695C51.1495 34.4733 51.1351 31.8769 51.1423 29.2474C51.1753 28.0864 51.0676 26.2688 51.2227 25.3923C51.2903 24.5905 52.1194 24.2974 52.8852 24.227C54.1339 24.0215 55.5664 24.3218 56.7389 23.76C57.6326 23.3462 57.6528 22.0199 56.9128 21.4653C53.9629 19.0887 41.3629 9.24037 34.4946 3.80754C33.4199 2.95835 32.4112 2.17094 31.3651 1.3433C30.1567 0.235468 28.8477 -0.455669 27.2082 0.350418C22.5097 3.5762 18.1904 7.49169 13.6528 10.9287C9.46571 14.3168 5.14071 17.5498 1.02694 21.0314C0.153318 21.7972 -0.618284 23.2959 0.729505 23.8405C1.92211 24.3017 3.37479 23.9755 4.56453 24.3218C5.86059 24.602 5.99853 25.9929 6.02295 27.1553C6.06175 32.9129 6.05744 41.0844 6.03732 44.6033C5.86346 46.0675 6.50574 47.7127 8.22137 47.6322C9.41542 47.5202 10.3408 46.9382 11.6785 46.4281C13.762 45.5588 16.8239 44.2815 18.5568 43.5587C19.4807 43.1909 20.396 42.7627 20.59 41.6778C21.4766 36.1387 18.6301 28.2976 24.9725 25.217C29.0115 22.8548 34.0794 24.6465 35.8309 28.9529C36.591 30.7662 36.5278 32.7635 36.5221 34.7176C36.4876 36.3212 36.5839 37.9606 36.4617 39.5556C36.3856 41.3818 34.7016 42.1908 33.1196 42.5673C26.4726 44.6134 20.0038 47.4555 14.2376 51.3609C7.0963 57.2952 15.0537 61.8013 13.4875 67.2485C12.5033 70.5245 9.11224 71.9629 6.82617 73.8897L6.81324 73.9026L6.81036 73.9055Z" fill="white"/>
</g>
</svg>
