<svg width="47" height="47" viewBox="0 0 47 47" fill="none" xmlns="http://www.w3.org/2000/svg">
<rect width="46.7273" height="46.7273" rx="23.3636" fill="#B2DDFF"/>
<path d="M25.3633 13.6332V17.7637C25.3633 18.3238 25.3633 18.6038 25.4723 18.8177C25.5681 19.0059 25.7211 19.1589 25.9093 19.2547C26.1232 19.3637 26.4032 19.3637 26.9633 19.3637H31.0938M20.3633 27.3636L22.3633 29.3636L26.8633 24.8636M25.3633 13.3636H20.1633C18.4831 13.3636 17.643 13.3636 17.0013 13.6906C16.4368 13.9782 15.9779 14.4372 15.6903 15.0017C15.3633 15.6434 15.3633 16.4835 15.3633 18.1636V28.5636C15.3633 30.2438 15.3633 31.0839 15.6903 31.7256C15.9779 32.2901 16.4368 32.749 17.0013 33.0367C17.643 33.3636 18.4831 33.3636 20.1633 33.3636H26.5633C28.2434 33.3636 29.0835 33.3636 29.7253 33.0367C30.2897 32.749 30.7487 32.2901 31.0363 31.7256C31.3633 31.0839 31.3633 30.2438 31.3633 28.5636V19.3636L25.3633 13.3636Z" stroke="#2E90FA" stroke-width="2" stroke-linecap="round" stroke-linejoin="round"/>
</svg>
