<svg width="47" height="47" viewBox="0 0 47 47" fill="none" xmlns="http://www.w3.org/2000/svg">
<rect y="0.136353" width="46.7273" height="46.7273" rx="23.3636" fill="#FEDF89"/>
<path d="M32.3633 29.5L31.3632 30.594C30.8327 31.1741 30.1134 31.5 29.3634 31.5C28.6134 31.5 27.8941 31.1741 27.3637 30.594C26.8325 30.0151 26.1133 29.6901 25.3635 29.6901C24.6137 29.6901 23.8944 30.0151 23.3633 30.594M14.3633 31.5H16.0378C16.527 31.5 16.7716 31.5 17.0018 31.4447C17.2058 31.3957 17.4009 31.3149 17.5799 31.2053C17.7817 31.0816 17.9547 30.9086 18.3006 30.5627L30.8633 18C31.6917 17.1716 31.6917 15.8284 30.8633 15C30.0349 14.1716 28.6917 14.1716 27.8633 15L15.3005 27.5627C14.9546 27.9086 14.7817 28.0816 14.658 28.2834C14.5483 28.4624 14.4675 28.6574 14.4185 28.8615C14.3633 29.0917 14.3633 29.3363 14.3633 29.8255V31.5Z" stroke="#F79009" stroke-width="2" stroke-linecap="round" stroke-linejoin="round"/>
</svg>
