<svg width="47" height="47" viewBox="0 0 47 47" fill="none" xmlns="http://www.w3.org/2000/svg">
<rect width="46.7273" height="46.7273" rx="23.3636" fill="#FEDF89"/>
<path d="M21.3633 25.8984C22.5968 25.1854 24.1296 25.1854 25.3632 25.8984M13.3633 26.3636L14.0648 19.3488C14.0914 19.0828 14.1047 18.9498 14.1251 18.8357C14.3655 17.4907 15.4845 16.478 16.8468 16.3726C16.9623 16.3636 17.096 16.3636 17.3633 16.3636M33.3633 26.3636L32.6618 19.3488C32.6352 19.0828 32.6219 18.9498 32.6015 18.8357C32.3611 17.4907 31.2421 16.478 29.8798 16.3726C29.7642 16.3636 29.6306 16.3636 29.3633 16.3636M20.1917 23.5352C21.7538 25.0973 21.7538 27.63 20.1917 29.1921C18.6296 30.7542 16.097 30.7542 14.5349 29.1921C12.9728 27.63 12.9728 25.0973 14.5349 23.5352C16.0969 21.9731 18.6296 21.9731 20.1917 23.5352ZM32.1917 23.5352C33.7538 25.0973 33.7538 27.63 32.1917 29.1921C30.6296 30.7542 28.097 30.7542 26.5349 29.1921C24.9728 27.63 24.9728 25.0973 26.5349 23.5352C28.0969 21.9731 30.6296 21.9731 32.1917 23.5352Z" stroke="#F79009" stroke-width="2" stroke-linecap="round" stroke-linejoin="round"/>
</svg>
