<svg width="47" height="47" viewBox="0 0 47 47" fill="none" xmlns="http://www.w3.org/2000/svg">
<rect width="46.7273" height="46.7273" rx="23.3636" fill="#FEDF89"/>
<path d="M20.3633 32.3636V24.9636C20.3633 24.4036 20.3633 24.1236 20.4723 23.9097C20.5682 23.7215 20.7211 23.5685 20.9093 23.4726C21.1232 23.3636 21.4032 23.3636 21.9633 23.3636H24.7633C25.3233 23.3636 25.6034 23.3636 25.8173 23.4726C26.0054 23.5685 26.1584 23.7215 26.2543 23.9097C26.3633 24.1236 26.3633 24.4036 26.3633 24.9636V32.3636M13.3633 20.8636L22.4033 14.0836C22.7475 13.8255 22.9197 13.6964 23.1087 13.6466C23.2756 13.6027 23.451 13.6027 23.6179 13.6466C23.8069 13.6964 23.979 13.8255 24.3233 14.0836L33.3633 20.8636M15.3633 19.3636V29.1636C15.3633 30.2838 15.3633 30.8438 15.5813 31.2716C15.773 31.648 16.079 31.9539 16.4553 32.1457C16.8831 32.3636 17.4432 32.3636 18.5633 32.3636H28.1633C29.2834 32.3636 29.8434 32.3636 30.2713 32.1457C30.6476 31.9539 30.9536 31.648 31.1453 31.2716C31.3633 30.8438 31.3633 30.2838 31.3633 29.1636V19.3636L25.2833 14.8036C24.5948 14.2873 24.2505 14.0291 23.8724 13.9295C23.5387 13.8417 23.1879 13.8417 22.8542 13.9295C22.4761 14.0291 22.1318 14.2873 21.4433 14.8036L15.3633 19.3636Z" stroke="#F79009" stroke-width="2" stroke-linecap="round" stroke-linejoin="round"/>
</svg>
