<svg width="47" height="47" viewBox="0 0 47 47" fill="none" xmlns="http://www.w3.org/2000/svg">
<rect width="46.7273" height="46.7273" rx="23.3636" fill="#FECDCA"/>
<path d="M28.3633 20.3636C28.3633 19.8518 28.168 19.3399 27.7775 18.9494C27.387 18.5589 26.8751 18.3636 26.3633 18.3636M26.3633 26.3636C29.677 26.3636 32.3633 23.6774 32.3633 20.3636C32.3633 17.0499 29.677 14.3636 26.3633 14.3636C23.0496 14.3636 20.3633 17.0499 20.3633 20.3636C20.3633 20.6373 20.3816 20.9067 20.4171 21.1707C20.4755 21.6048 20.5046 21.8219 20.485 21.9592C20.4645 22.1023 20.4385 22.1794 20.368 22.3055C20.3003 22.4266 20.181 22.5459 19.9424 22.7845L14.8319 27.895C14.659 28.068 14.5725 28.1544 14.5106 28.2554C14.4558 28.3448 14.4154 28.4424 14.3909 28.5444C14.3633 28.6595 14.3633 28.7818 14.3633 29.0264V30.7636C14.3633 31.3237 14.3633 31.6037 14.4723 31.8176C14.5681 32.0058 14.7211 32.1588 14.9093 32.2547C15.1232 32.3636 15.4032 32.3636 15.9633 32.3636H18.3633V30.3636H20.3633V28.3636H22.3633L23.9424 26.7845C24.181 26.5459 24.3003 26.4266 24.4214 26.359C24.5475 26.2884 24.6246 26.2624 24.7677 26.2419C24.905 26.2223 25.1221 26.2515 25.5562 26.3098C25.8202 26.3453 26.0896 26.3636 26.3633 26.3636Z" stroke="#F04438" stroke-width="2" stroke-linecap="round" stroke-linejoin="round"/>
</svg>
