<svg width="47" height="47" viewBox="0 0 47 47" fill="none" xmlns="http://www.w3.org/2000/svg">
<rect width="46.7273" height="46.7273" rx="23.3636" fill="#B2DDFF"/>
<path d="M16.3632 24.3636C16.3632 21.0499 19.0495 18.3636 22.3632 18.3636M16.3632 24.3636C16.3632 26.012 17.0279 27.5052 18.104 28.5896C18.2077 28.6942 18.2596 28.7465 18.2902 28.7968C18.3195 28.8448 18.3365 28.8861 18.3495 28.9407C18.3632 28.998 18.3632 29.0631 18.3632 29.1935V31.5636C18.3632 31.8437 18.3632 31.9837 18.4177 32.0906C18.4656 32.1847 18.5421 32.2612 18.6362 32.3092C18.7432 32.3636 18.8832 32.3636 19.1632 32.3636H21.0632C21.3432 32.3636 21.4833 32.3636 21.5902 32.3092C21.6843 32.2612 21.7608 32.1847 21.8087 32.0906C21.8632 31.9837 21.8632 31.8437 21.8632 31.5636V31.1636C21.8632 30.8836 21.8632 30.7436 21.9177 30.6367C21.9656 30.5426 22.0421 30.4661 22.1362 30.4181C22.2432 30.3636 22.3832 30.3636 22.6632 30.3636H24.0632C24.3432 30.3636 24.4833 30.3636 24.5902 30.4181C24.6843 30.4661 24.7608 30.5426 24.8087 30.6367C24.8632 30.7436 24.8632 30.8836 24.8632 31.1636V31.5636C24.8632 31.8437 24.8632 31.9837 24.9177 32.0906C24.9656 32.1847 25.0421 32.2612 25.1362 32.3092C25.2432 32.3636 25.3832 32.3636 25.6632 32.3636H27.5633C27.8433 32.3636 27.9833 32.3636 28.0903 32.3092C28.1844 32.2612 28.2608 32.1847 28.3088 32.0906C28.3633 31.9837 28.3633 31.8437 28.3633 31.5636V30.588C28.3633 30.3859 28.3633 30.2849 28.392 30.2038C28.4196 30.126 28.4543 30.0716 28.5132 30.0139C28.5747 29.9537 28.6788 29.9053 28.887 29.8087C29.8692 29.3527 30.7073 28.6387 31.3144 27.7538C31.4212 27.5982 31.4745 27.5204 31.5315 27.4744C31.586 27.4305 31.6349 27.4047 31.702 27.3846C31.7722 27.3636 31.8555 27.3636 32.022 27.3636H32.5633C32.8433 27.3636 32.9833 27.3636 33.0903 27.3092C33.1844 27.2612 33.2608 27.1847 33.3088 27.0906C33.3633 26.9837 33.3633 26.8437 33.3633 26.5636V23.1494C33.3633 22.8828 33.3633 22.7495 33.3138 22.6467C33.2646 22.5446 33.1823 22.4623 33.0802 22.4132C32.9774 22.3636 32.8441 22.3636 32.5775 22.3636C32.3846 22.3636 32.2881 22.3636 32.2104 22.3375C32.1266 22.3092 32.0678 22.2716 32.007 22.2074C31.9506 22.1479 31.9046 22.0483 31.8125 21.8491C31.5171 21.2099 31.1124 20.6314 30.6225 20.1377C30.5188 20.0331 30.4669 19.9808 30.4362 19.9305C30.407 19.8825 30.39 19.8412 30.377 19.7866C30.3633 19.7293 30.3633 19.6642 30.3633 19.5338V18.4242C30.3633 18.0642 30.3633 17.8842 30.2883 17.7632C30.2226 17.6572 30.1197 17.5795 29.9997 17.5455C29.8628 17.5066 29.6897 17.5561 29.3435 17.655L26.9709 18.3329C26.9306 18.3444 26.9105 18.3501 26.89 18.3542C26.8718 18.3578 26.8534 18.3604 26.8349 18.3619C26.8141 18.3636 26.7929 18.3636 26.7507 18.3636H22.3632M16.3632 24.3636H15.3633C14.2587 24.3636 13.3633 23.4682 13.3633 22.3636C13.3633 21.6234 13.7655 20.977 14.3633 20.6312M22.3632 18.3636H26.3278C26.3512 18.2003 26.3633 18.0334 26.3633 17.8636C26.3633 15.9307 24.7963 14.3636 22.8633 14.3636C20.9303 14.3636 19.3633 15.9307 19.3633 17.8636C19.3633 18.2809 19.4363 18.681 19.5702 19.052C20.4044 18.6125 21.3547 18.3636 22.3632 18.3636Z" stroke="#2E90FA" stroke-width="2" stroke-linecap="round" stroke-linejoin="round"/>
</svg>
