<svg width="47" height="47" viewBox="0 0 47 47" fill="none" xmlns="http://www.w3.org/2000/svg">
<rect width="46.7273" height="46.7273" rx="23.3636" fill="#FECDCA"/>
<path d="M27.3633 15.3636C28.2933 15.3636 28.7582 15.3636 29.1397 15.4659C30.175 15.7433 30.9837 16.5519 31.2611 17.5872C31.3633 17.9687 31.3633 18.4337 31.3633 19.3636V28.5636C31.3633 30.2438 31.3633 31.0839 31.0363 31.7256C30.7487 32.2901 30.2897 32.749 29.7253 33.0367C29.0835 33.3636 28.2434 33.3636 26.5633 33.3636H20.1633C18.4831 33.3636 17.643 33.3636 17.0013 33.0367C16.4368 32.749 15.9779 32.2901 15.6903 31.7256C15.3633 31.0839 15.3633 30.2438 15.3633 28.5636V19.3636C15.3633 18.4337 15.3633 17.9687 15.4655 17.5872C15.7429 16.5519 16.5515 15.7433 17.5868 15.4659C17.9683 15.3636 18.4333 15.3636 19.3633 15.3636M20.3633 26.3636L22.3633 28.3636L26.8633 23.8636M20.9633 17.3636H25.7633C26.3233 17.3636 26.6034 17.3636 26.8173 17.2547C27.0054 17.1588 27.1584 17.0058 27.2543 16.8176C27.3633 16.6037 27.3633 16.3237 27.3633 15.7636V14.9636C27.3633 14.4036 27.3633 14.1236 27.2543 13.9097C27.1584 13.7215 27.0054 13.5685 26.8173 13.4726C26.6034 13.3636 26.3233 13.3636 25.7633 13.3636H20.9633C20.4032 13.3636 20.1232 13.3636 19.9093 13.4726C19.7211 13.5685 19.5681 13.7215 19.4723 13.9097C19.3633 14.1236 19.3633 14.4036 19.3633 14.9636V15.7636C19.3633 16.3237 19.3633 16.6037 19.4723 16.8176C19.5681 17.0058 19.7211 17.1588 19.9093 17.2547C20.1232 17.3636 20.4032 17.3636 20.9633 17.3636Z" stroke="#F04438" stroke-width="2" stroke-linecap="round" stroke-linejoin="round"/>
</svg>
