<svg width="47" height="48" viewBox="0 0 47 48" fill="none" xmlns="http://www.w3.org/2000/svg">
<rect y="0.727295" width="46.7273" height="46.7273" rx="23.3636" fill="#A6F4C5"/>
<path d="M23.3638 33.0909L23.2637 32.9409C22.5691 31.8989 22.2218 31.3779 21.7629 31.0008C21.3566 30.6669 20.8885 30.4164 20.3854 30.2635C19.817 30.0909 19.1909 30.0909 17.9386 30.0909H16.5638C15.4437 30.0909 14.8836 30.0909 14.4558 29.873C14.0795 29.6812 13.7735 29.3752 13.5818 28.9989C13.3638 28.5711 13.3638 28.011 13.3638 26.8909V18.2909C13.3638 17.1708 13.3638 16.6108 13.5818 16.183C13.7735 15.8066 14.0795 15.5007 14.4558 15.3089C14.8836 15.0909 15.4437 15.0909 16.5638 15.0909H16.9638C19.204 15.0909 20.3241 15.0909 21.1797 15.5269C21.9324 15.9104 22.5443 16.5223 22.9278 17.275C23.3638 18.1306 23.3638 19.2507 23.3638 21.4909M23.3638 33.0909V21.4909M23.3638 33.0909L23.4638 32.9409C24.1585 31.8989 24.5058 31.3779 24.9647 31.0008C25.3709 30.6669 25.839 30.4164 26.3422 30.2635C26.9105 30.0909 27.5367 30.0909 28.7889 30.0909H30.1638C31.2839 30.0909 31.8439 30.0909 32.2718 29.873C32.6481 29.6812 32.954 29.3752 33.1458 28.9989C33.3638 28.5711 33.3638 28.011 33.3638 26.8909V18.2909C33.3638 17.1708 33.3638 16.6108 33.1458 16.183C32.954 15.8066 32.6481 15.5007 32.2718 15.3089C31.8439 15.0909 31.2839 15.0909 30.1638 15.0909H29.7638C27.5236 15.0909 26.4035 15.0909 25.5478 15.5269C24.7952 15.9104 24.1832 16.5223 23.7997 17.275C23.3638 18.1306 23.3638 19.2507 23.3638 21.4909" stroke="#01C764" stroke-width="2" stroke-linecap="round" stroke-linejoin="round"/>
</svg>
