<svg width="47" height="47" viewBox="0 0 47 47" fill="none" xmlns="http://www.w3.org/2000/svg">
<rect width="46.7273" height="46.7273" rx="23.3636" fill="#B2DDFF"/>
<path d="M20.8634 22.8636L22.8634 24.8636L27.3634 20.3636M23.8634 31.3636C28.5578 31.3636 32.3634 27.5581 32.3634 22.8636C32.3634 18.1692 28.5578 14.3636 23.8634 14.3636C19.169 14.3636 15.3634 18.1692 15.3634 22.8636C15.3634 23.8136 15.5192 24.7272 15.8068 25.5803C15.915 25.9013 15.9691 26.0618 15.9788 26.1851C15.9885 26.3068 15.9812 26.3922 15.951 26.5106C15.9205 26.6305 15.8532 26.7551 15.7185 27.0045L14.0828 30.032C13.8495 30.4638 13.7329 30.6798 13.759 30.8464C13.7817 30.9916 13.8671 31.1194 13.9926 31.1959C14.1366 31.2837 14.3807 31.2585 14.8689 31.208L19.99 30.6787C20.145 30.6626 20.2226 30.6546 20.2933 30.6573C20.3628 30.66 20.4118 30.6665 20.4796 30.6821C20.5485 30.698 20.6352 30.7314 20.8085 30.7982C21.7566 31.1634 22.7866 31.3636 23.8634 31.3636Z" stroke="#2E90FA" stroke-width="2" stroke-linecap="round" stroke-linejoin="round"/>
</svg>
