<svg width="21" height="21" viewBox="0 0 21 21" fill="none" xmlns="http://www.w3.org/2000/svg">
<path d="M11.0728 9.18815V6.27148M11.0728 12.1048H11.0811M11.0728 16.6882C14.9848 16.6882 18.1561 13.5168 18.1561 9.60482C18.1561 5.6928 14.9848 2.52148 11.0728 2.52148C7.16075 2.52148 3.98943 5.6928 3.98943 9.60482C3.98943 10.3965 4.11931 11.1578 4.35891 11.8687C4.44908 12.1362 4.49416 12.2699 4.50229 12.3727C4.51032 12.4742 4.50425 12.5453 4.47914 12.6439C4.45372 12.7438 4.3976 12.8477 4.28534 13.0555L2.9223 15.5784C2.72787 15.9383 2.63066 16.1183 2.65242 16.2571C2.67137 16.3781 2.74256 16.4846 2.84708 16.5483C2.96708 16.6215 3.17052 16.6005 3.57738 16.5585L7.8449 16.1173C7.97414 16.104 8.03875 16.0973 8.09765 16.0995C8.15558 16.1018 8.19647 16.1072 8.25296 16.1202C8.3104 16.1335 8.38262 16.1613 8.52706 16.2169C9.31711 16.5213 10.1755 16.6882 11.0728 16.6882Z" stroke="black" stroke-width="1.25" stroke-linecap="round" stroke-linejoin="round"/>
</svg>
