<svg width="21" height="21" viewBox="0 0 21 21" fill="none" xmlns="http://www.w3.org/2000/svg">
<path d="M6.90674 10.0215H6.91507M10.6567 10.0215H10.6651M14.4067 10.0215H14.4151M10.6567 17.5215C14.7989 17.5215 18.1567 14.1636 18.1567 10.0215C18.1567 5.87935 14.7989 2.52148 10.6567 2.52148C6.5146 2.52148 3.15674 5.87935 3.15674 10.0215C3.15674 11.0191 3.35152 11.9712 3.70512 12.8419C3.7728 13.0085 3.80664 13.0919 3.82173 13.1592C3.8365 13.2251 3.8419 13.2739 3.84191 13.3414C3.84192 13.4104 3.82939 13.4856 3.80433 13.6359L3.31018 16.6008C3.25843 16.9113 3.23256 17.0666 3.28071 17.1788C3.32285 17.2771 3.40114 17.3554 3.49939 17.3975C3.61165 17.4457 3.76689 17.4198 4.07737 17.368L7.04228 16.8739C7.19264 16.8488 7.26783 16.8363 7.33685 16.8363C7.40437 16.8363 7.45312 16.8417 7.519 16.8565C7.58636 16.8716 7.66968 16.9054 7.83631 16.9731C8.70699 17.3267 9.65912 17.5215 10.6567 17.5215ZM7.3234 10.0215C7.3234 10.2516 7.13686 10.4382 6.90674 10.4382C6.67662 10.4382 6.49007 10.2516 6.49007 10.0215C6.49007 9.79137 6.67662 9.60482 6.90674 9.60482C7.13686 9.60482 7.3234 9.79137 7.3234 10.0215ZM11.0734 10.0215C11.0734 10.2516 10.8869 10.4382 10.6567 10.4382C10.4266 10.4382 10.2401 10.2516 10.2401 10.0215C10.2401 9.79137 10.4266 9.60482 10.6567 9.60482C10.8869 9.60482 11.0734 9.79137 11.0734 10.0215ZM14.8234 10.0215C14.8234 10.2516 14.6369 10.4382 14.4067 10.4382C14.1766 10.4382 13.9901 10.2516 13.9901 10.0215C13.9901 9.79137 14.1766 9.60482 14.4067 9.60482C14.6369 9.60482 14.8234 9.79137 14.8234 10.0215Z" stroke="white" stroke-width="1.25" stroke-linecap="round" stroke-linejoin="round"/>
</svg>
