<svg width="21" height="21" viewBox="0 0 21 21" fill="none" xmlns="http://www.w3.org/2000/svg">
<path d="M12.3236 1.91309V5.3552C12.3236 5.82191 12.3236 6.05527 12.4144 6.23353C12.4943 6.39033 12.6218 6.51781 12.7786 6.59771C12.9568 6.68854 13.1902 6.68854 13.6569 6.68854H17.099M13.9902 10.8551H7.32357M13.9902 14.1885H7.32357M8.99023 7.52181H7.32357M12.3236 1.68848H7.99023C6.5901 1.68848 5.89004 1.68848 5.35526 1.96096C4.88485 2.20064 4.5024 2.5831 4.26272 3.0535C3.99023 3.58828 3.99023 4.28835 3.99023 5.68848V14.3551C3.99023 15.7553 3.99023 16.4553 4.26272 16.9901C4.5024 17.4605 4.88485 17.843 5.35526 18.0827C5.89004 18.3551 6.5901 18.3551 7.99023 18.3551H13.3236C14.7237 18.3551 15.4238 18.3551 15.9585 18.0827C16.4289 17.843 16.8114 17.4605 17.0511 16.9901C17.3236 16.4553 17.3236 15.7553 17.3236 14.3551V6.68848L12.3236 1.68848Z" stroke="black" stroke-width="1.25" stroke-linecap="round" stroke-linejoin="round"/>
</svg>
