<svg width="42" height="43" viewBox="0 0 42 43" fill="none" xmlns="http://www.w3.org/2000/svg">
<path d="M20.999 39.2773C30.664 39.2773 38.499 31.4423 38.499 21.7773C38.499 12.1124 30.664 4.27734 20.999 4.27734C11.334 4.27734 3.49902 12.1124 3.49902 21.7773C3.49902 31.4423 11.334 39.2773 20.999 39.2773Z" fill="#252B37"/>
<path d="M27.999 21.7773L20.999 14.7773L13.999 21.7773" fill="#252B37"/>
<path d="M27.999 21.7773L20.999 14.7773M20.999 14.7773L13.999 21.7773M20.999 14.7773V28.7773M38.499 21.7773C38.499 31.4423 30.664 39.2773 20.999 39.2773C11.334 39.2773 3.49902 31.4423 3.49902 21.7773C3.49902 12.1124 11.334 4.27734 20.999 4.27734C30.664 4.27734 38.499 12.1124 38.499 21.7773Z" stroke="white" stroke-width="2" stroke-linecap="round" stroke-linejoin="round"/>
</svg>
