<svg width="21" height="21" viewBox="0 0 21 21" fill="none" xmlns="http://www.w3.org/2000/svg">
<path d="M9.40659 7.52335C9.55342 7.10595 9.84323 6.75399 10.2247 6.5298C10.6062 6.30561 11.0547 6.22365 11.4908 6.29846C11.9269 6.37326 12.3224 6.59999 12.6074 6.93849C12.8923 7.27699 13.0483 7.70541 13.0476 8.14788C13.0476 9.39695 11.174 10.0215 11.174 10.0215M11.1982 12.5215H11.2065M11.0733 16.6882C14.9853 16.6882 18.1566 13.5168 18.1566 9.60482C18.1566 5.6928 14.9853 2.52148 11.0733 2.52148C7.16124 2.52148 3.98992 5.6928 3.98992 9.60482C3.98992 10.3965 4.11979 11.1578 4.3594 11.8687C4.44956 12.1362 4.49465 12.2699 4.50278 12.3727C4.51081 12.4742 4.50474 12.5453 4.47963 12.6439C4.45421 12.7438 4.39809 12.8477 4.28583 13.0555L2.92279 15.5784C2.72836 15.9383 2.63115 16.1183 2.6529 16.2571C2.67185 16.3781 2.74304 16.4846 2.84757 16.5483C2.96757 16.6215 3.171 16.6005 3.57787 16.5585L7.84539 16.1173C7.97463 16.104 8.03924 16.0973 8.09814 16.0995C8.15607 16.1018 8.19696 16.1072 8.25345 16.1202C8.31088 16.1335 8.38311 16.1613 8.52755 16.2169C9.31759 16.5213 10.1759 16.6882 11.0733 16.6882Z" stroke="black" stroke-width="1.25" stroke-linecap="round" stroke-linejoin="round"/>
</svg>
