<svg width="21" height="20" viewBox="0 0 21 20" fill="none" xmlns="http://www.w3.org/2000/svg">
<path d="M9.36328 2H6.16328C4.48312 2 3.64304 2 3.00131 2.32698C2.43682 2.6146 1.97788 3.07354 1.69026 3.63803C1.36328 4.27976 1.36328 5.11984 1.36328 6.8V14.2C1.36328 15.8802 1.36328 16.7202 1.69026 17.362C1.97788 17.9265 2.43682 18.3854 3.00131 18.673C3.64304 19 4.48312 19 6.16328 19H13.5633C15.2434 19 16.0835 19 16.7253 18.673C17.2897 18.3854 17.7487 17.9265 18.0363 17.362C18.3633 16.7202 18.3633 15.8802 18.3633 14.2V11M11.3633 15H5.36328M13.3633 11H5.36328M18.4846 1.87868C19.6562 3.05025 19.6562 4.94975 18.4846 6.12132C17.313 7.29289 15.4135 7.29289 14.242 6.12132C13.0704 4.94975 13.0704 3.05025 14.242 1.87868C15.4135 0.707107 17.313 0.707107 18.4846 1.87868Z" stroke="#F04438" stroke-width="2" stroke-linecap="round" stroke-linejoin="round"/>
</svg>
