<svg width="45" height="44" viewBox="0 0 45 44" fill="none" xmlns="http://www.w3.org/2000/svg">
<rect x="0.585449" y="-0.000976562" width="43.9644" height="43.7093" rx="21.8546" fill="#F79009"/>
<path d="M17.4228 15.9008L21.6322 20.1102M17.4228 15.9008H14.6166L13.6812 13.0946L14.6166 12.1592L17.4228 13.0946V15.9008ZM29.8254 12.8523L27.3675 15.3102C26.9971 15.6807 26.8118 15.8659 26.7425 16.0795C26.6814 16.2674 26.6814 16.4697 26.7425 16.6576C26.8118 16.8712 26.9971 17.0564 27.3675 17.4268L27.5894 17.6488C27.9598 18.0192 28.1451 18.2044 28.3587 18.2738C28.5465 18.3349 28.749 18.3349 28.9368 18.2738C29.1503 18.2044 29.3356 18.0192 29.7061 17.6488L32.0052 15.3496C32.2528 15.9522 32.3894 16.6121 32.3894 17.3039C32.3894 20.1454 30.086 22.4487 27.2446 22.4487C26.9021 22.4487 26.5673 22.4152 26.2435 22.3513C25.7888 22.2617 25.5614 22.2168 25.4236 22.2306C25.277 22.2452 25.2048 22.2671 25.0749 22.3366C24.9528 22.402 24.8303 22.5245 24.5853 22.7696L17.8905 29.4643C17.1156 30.2392 15.8592 30.2392 15.0843 29.4643C14.3093 28.6894 14.3093 27.433 15.0843 26.6581L21.779 19.9633C22.0241 19.7182 22.1465 19.5958 22.2119 19.4736C22.2814 19.3438 22.3034 19.2716 22.318 19.125C22.3317 18.9872 22.2868 18.7598 22.1972 18.3051C22.1333 17.9812 22.0999 17.6465 22.0999 17.3039C22.0999 14.4626 24.4032 12.1592 27.2446 12.1592C28.1852 12.1592 29.0668 12.4116 29.8254 12.8523ZM23.0354 24.3194L28.18 29.4642C28.9549 30.2391 30.2114 30.2391 30.9863 29.4642C31.7612 28.6893 31.7612 27.4329 30.9863 26.658L26.7538 22.4256C26.4542 22.3973 26.1621 22.3432 25.8797 22.2657C25.5157 22.1657 25.1165 22.2383 24.8497 22.5051L23.0354 24.3194Z" stroke="white" stroke-width="1.87082" stroke-linecap="round" stroke-linejoin="round"/>
</svg>
