<svg width="177" height="90" viewBox="0 0 177 90" fill="none" xmlns="http://www.w3.org/2000/svg">
<path d="M63.775 72.9009V70.2939L69.8663 64.6539C70.3843 64.1526 70.8188 63.7014 71.1697 63.3003C71.5262 62.8993 71.7964 62.5065 71.9802 62.1222C72.164 61.7323 72.256 61.3117 72.256 60.8605C72.256 60.3592 72.1418 59.9275 71.9134 59.5654C71.685 59.1977 71.373 58.9164 70.9776 58.7215C70.5821 58.5209 70.1336 58.4207 69.6323 58.4207C69.1087 58.4207 68.6519 58.5265 68.262 58.7382C67.8721 58.9499 67.5713 59.2534 67.3596 59.6489C67.1479 60.0444 67.0421 60.5151 67.0421 61.061H63.6079C63.6079 59.9414 63.8614 58.9694 64.3683 58.1449C64.8752 57.3205 65.5854 56.6827 66.499 56.2315C67.4125 55.7803 68.4653 55.5547 69.6574 55.5547C70.8829 55.5547 71.9496 55.772 72.8576 56.2064C73.7711 56.6354 74.4813 57.2314 74.9882 57.9945C75.4951 58.7577 75.7486 59.6322 75.7486 60.6182C75.7486 61.2643 75.6205 61.9022 75.3642 62.5316C75.1136 63.1611 74.6651 63.8601 74.019 64.6289C73.3728 65.392 72.4621 66.3083 71.2867 67.3778L68.7884 69.826V69.943H75.9742V72.9009H63.775ZM85.3053 73.2769C83.8681 73.2713 82.6315 72.9176 81.5954 72.2157C80.5649 71.5139 79.7711 70.4973 79.2141 69.1659C78.6626 67.8346 78.3896 66.2331 78.3952 64.3615C78.3952 62.4954 78.6709 60.9051 79.2224 59.5904C79.7795 58.2758 80.5732 57.276 81.6038 56.5908C82.6398 55.9001 83.8737 55.5547 85.3053 55.5547C86.7369 55.5547 87.9679 55.9001 88.9984 56.5908C90.0345 57.2815 90.8311 58.2842 91.3881 59.5988C91.9452 60.9078 92.2209 62.4954 92.2153 64.3615C92.2153 66.2387 91.9368 67.843 91.3798 69.1743C90.8283 70.5056 90.0373 71.5222 89.0068 72.2241C87.9763 72.9259 86.7424 73.2769 85.3053 73.2769ZM85.3053 70.2772C86.2857 70.2772 87.0683 69.7842 87.6532 68.7983C88.2381 67.8123 88.5277 66.3334 88.5222 64.3615C88.5222 63.0636 88.3885 61.9829 88.1211 61.1195C87.8593 60.2561 87.4861 59.6072 87.0015 59.1727C86.5224 58.7382 85.957 58.5209 85.3053 58.5209C84.3305 58.5209 83.5506 59.0083 82.9657 59.9832C82.3808 60.958 82.0856 62.4174 82.08 64.3615C82.08 65.6761 82.2109 66.7735 82.4727 67.6536C82.7401 68.5281 83.1161 69.1854 83.6007 69.6255C84.0854 70.06 84.6535 70.2772 85.3053 70.2772ZM104.162 69.6923V68.7899C104.162 68.1048 104.307 67.4753 104.596 66.9016C104.891 66.3223 105.318 65.8599 105.875 65.5146C106.437 65.1636 107.122 64.9881 107.93 64.9881C108.749 64.9881 109.437 65.1608 109.994 65.5062C110.557 65.8516 110.98 66.3139 111.264 66.8932C111.554 67.467 111.698 68.0992 111.698 68.7899V69.6923C111.698 70.3775 111.554 71.0097 111.264 71.5891C110.974 72.1628 110.548 72.6224 109.986 72.9677C109.423 73.3187 108.738 73.4941 107.93 73.4941C107.111 73.4941 106.423 73.3187 105.866 72.9677C105.309 72.6224 104.886 72.1628 104.596 71.5891C104.307 71.0097 104.162 70.3775 104.162 69.6923ZM106.593 68.7899V69.6923C106.593 70.0878 106.688 70.4611 106.877 70.812C107.072 71.1629 107.423 71.3384 107.93 71.3384C108.437 71.3384 108.782 71.1657 108.966 70.8203C109.156 70.475 109.25 70.099 109.25 69.6923V68.7899C109.25 68.3833 109.161 68.0045 108.983 67.6536C108.805 67.3026 108.454 67.1272 107.93 67.1272C107.429 67.1272 107.081 67.3026 106.886 67.6536C106.691 68.0045 106.593 68.3833 106.593 68.7899ZM95.38 59.8996V58.9972C95.38 58.3065 95.5276 57.6742 95.8229 57.1005C96.1181 56.5212 96.5442 56.0588 97.1013 55.7135C97.6639 55.3681 98.3434 55.1954 99.14 55.1954C99.9644 55.1954 100.655 55.3681 101.212 55.7135C101.769 56.0588 102.193 56.5212 102.482 57.1005C102.772 57.6742 102.917 58.3065 102.917 58.9972V59.8996C102.917 60.5903 102.769 61.2226 102.474 61.7963C102.184 62.3701 101.758 62.8296 101.195 63.175C100.638 63.5148 99.9533 63.6847 99.14 63.6847C98.3267 63.6847 97.6388 63.512 97.0762 63.1666C96.5191 62.8157 96.0958 62.3561 95.8061 61.788C95.5221 61.2142 95.38 60.5848 95.38 59.8996ZM97.8282 58.9972V59.8996C97.8282 60.3062 97.9229 60.6822 98.1123 61.0276C98.3072 61.373 98.6498 61.5457 99.14 61.5457C99.6525 61.5457 100.001 61.373 100.184 61.0276C100.374 60.6822 100.469 60.3062 100.469 59.8996V58.9972C100.469 58.5906 100.379 58.2118 100.201 57.8608C100.023 57.5099 99.6692 57.3344 99.14 57.3344C98.6443 57.3344 98.3017 57.5127 98.1123 57.8692C97.9229 58.2257 97.8282 58.6017 97.8282 58.9972ZM96.4829 72.9009L108.248 55.7887H110.437L98.6721 72.9009H96.4829Z" fill="#252B37"/>
<path d="M66.6823 83.1367L69.3183 76.4642H70.5341L73.1798 83.1367H72.1779L71.5262 81.4832H68.2775L67.6356 83.1367H66.6823ZM68.579 80.6953H71.215L70.4077 78.6041C70.3882 78.5457 70.359 78.4647 70.3201 78.3609C70.2812 78.2572 70.2391 78.1437 70.1937 78.0205C70.1483 77.8908 70.1029 77.7611 70.0575 77.6314C70.0121 77.4952 69.97 77.372 69.9311 77.2618H69.8727C69.8273 77.3915 69.7754 77.5406 69.7171 77.7092C69.6587 77.8778 69.6003 78.0432 69.542 78.2053C69.4836 78.3609 69.435 78.4939 69.3961 78.6041L68.579 80.6953ZM75.125 83.1367L73.2283 78.0205H74.1232L75.0569 80.5786C75.1023 80.7018 75.1542 80.8574 75.2126 81.0455C75.2709 81.227 75.3293 81.4151 75.3876 81.6096C75.4525 81.7977 75.5044 81.9663 75.5433 82.1154H75.5919C75.6373 81.9728 75.6892 81.8074 75.7475 81.6194C75.8059 81.4248 75.8643 81.2368 75.9226 81.0552C75.9875 80.8672 76.0426 80.7083 76.088 80.5786L77.012 78.0205H77.8777L75.981 83.1367H75.125ZM79.8633 83.2534C79.6752 83.2534 79.4872 83.2307 79.2991 83.1854C79.1111 83.14 78.936 83.0654 78.7739 82.9616C78.6118 82.8579 78.4821 82.7152 78.3848 82.5337C78.2876 82.3456 78.2389 82.1122 78.2389 81.8333C78.2389 81.4832 78.3232 81.1946 78.4918 80.9677C78.6604 80.7407 78.8939 80.5656 79.1921 80.4424C79.4969 80.3127 79.8568 80.2252 80.2718 80.1798C80.6868 80.1279 81.1375 80.102 81.6238 80.102V79.5184C81.6238 79.3303 81.5914 79.1682 81.5265 79.0321C81.4617 78.8959 81.345 78.7921 81.1764 78.7208C81.0143 78.643 80.7808 78.6041 80.4761 78.6041C80.1843 78.6041 79.9508 78.643 79.7757 78.7208C79.6072 78.7921 79.4872 78.8862 79.4159 79.0029C79.351 79.1196 79.3186 79.2493 79.3186 79.3919V79.5378H78.4918C78.4853 79.5054 78.4821 79.473 78.4821 79.4406C78.4821 79.4082 78.4821 79.3693 78.4821 79.3239C78.4821 79.0126 78.5664 78.7532 78.735 78.5457C78.9101 78.3317 79.1532 78.1729 79.4645 78.0691C79.7757 77.9589 80.1324 77.9038 80.5344 77.9038C80.9624 77.9038 81.319 77.9654 81.6044 78.0886C81.8962 78.2118 82.1134 78.3869 82.256 78.6138C82.4052 78.8408 82.4798 79.1131 82.4798 79.4309V82.203C82.4798 82.3262 82.5089 82.4137 82.5673 82.4656C82.6257 82.511 82.697 82.5337 82.7813 82.5337H83.1606V83.0978C83.0698 83.1367 82.9693 83.1691 82.8591 83.1951C82.7489 83.2275 82.6224 83.2437 82.4798 83.2437C82.3112 83.2437 82.1718 83.208 82.0615 83.1367C81.9513 83.0719 81.867 82.9811 81.8086 82.8644C81.7503 82.7412 81.7114 82.605 81.6919 82.4559H81.6238C81.5071 82.618 81.358 82.7606 81.1764 82.8838C81.0013 83.0005 80.8035 83.0913 80.5831 83.1562C80.3626 83.221 80.1227 83.2534 79.8633 83.2534ZM80.0773 82.5337C80.2848 82.5337 80.4793 82.5012 80.6609 82.4364C80.8489 82.3716 81.0143 82.2808 81.1569 82.1641C81.2996 82.0408 81.4131 81.8949 81.4974 81.7264C81.5817 81.5578 81.6238 81.3729 81.6238 81.1719V80.744C81.0986 80.744 80.6511 80.7731 80.2815 80.8315C79.9119 80.8899 79.6266 80.9936 79.4256 81.1427C79.2311 81.2919 79.1338 81.5026 79.1338 81.775C79.1338 81.9501 79.1727 82.0927 79.2505 82.203C79.3283 82.3132 79.4386 82.3975 79.5812 82.4559C79.7239 82.5077 79.8892 82.5337 80.0773 82.5337ZM83.8796 83.1367V78.0205H84.5702L84.6481 78.7889H84.7161C84.8523 78.5814 85.0047 78.4128 85.1733 78.2831C85.3484 78.1534 85.5397 78.0594 85.7472 78.001C85.9612 77.9362 86.1881 77.9038 86.428 77.9038C86.7523 77.9038 87.0343 77.9589 87.2743 78.0691C87.5207 78.1794 87.712 78.3577 87.8481 78.6041C87.9908 78.8505 88.0621 79.1844 88.0621 79.6059V83.1367H87.2062V79.7227C87.2062 79.5087 87.177 79.3336 87.1186 79.1974C87.0668 79.0612 86.9922 78.9542 86.8949 78.8764C86.8041 78.7986 86.6907 78.7435 86.5545 78.7111C86.4248 78.6787 86.2789 78.6624 86.1168 78.6624C85.8769 78.6624 85.6499 78.7208 85.4359 78.8375C85.2219 78.9542 85.0501 79.1228 84.9204 79.3433C84.7972 79.5638 84.7356 79.8264 84.7356 80.1312V83.1367H83.8796ZM88.9908 83.1367V82.6796L91.8407 78.7403H89.195V78.0205H93.0663V78.4679L90.2066 82.4169H93.2219V83.1367H88.9908ZM95.2987 83.2534C95.1106 83.2534 94.9226 83.2307 94.7345 83.1854C94.5465 83.14 94.3714 83.0654 94.2093 82.9616C94.0472 82.8579 93.9175 82.7152 93.8202 82.5337C93.723 82.3456 93.6743 82.1122 93.6743 81.8333C93.6743 81.4832 93.7586 81.1946 93.9272 80.9677C94.0958 80.7407 94.3293 80.5656 94.6275 80.4424C94.9323 80.3127 95.2922 80.2252 95.7072 80.1798C96.1222 80.1279 96.5729 80.102 97.0592 80.102V79.5184C97.0592 79.3303 97.0268 79.1682 96.962 79.0321C96.8971 78.8959 96.7804 78.7921 96.6118 78.7208C96.4497 78.643 96.2162 78.6041 95.9115 78.6041C95.6197 78.6041 95.3862 78.643 95.2112 78.7208C95.0426 78.7921 94.9226 78.8862 94.8513 79.0029C94.7864 79.1196 94.754 79.2493 94.754 79.3919V79.5378H93.9272C93.9207 79.5054 93.9175 79.473 93.9175 79.4406C93.9175 79.4082 93.9175 79.3693 93.9175 79.3239C93.9175 79.0126 94.0018 78.7532 94.1704 78.5457C94.3455 78.3317 94.5886 78.1729 94.8999 78.0691C95.2112 77.9589 95.5678 77.9038 95.9698 77.9038C96.3978 77.9038 96.7545 77.9654 97.0398 78.0886C97.3316 78.2118 97.5488 78.3869 97.6915 78.6138C97.8406 78.8408 97.9152 79.1131 97.9152 79.4309V82.203C97.9152 82.3262 97.9443 82.4137 98.0027 82.4656C98.0611 82.511 98.1324 82.5337 98.2167 82.5337H98.596V83.0978C98.5053 83.1367 98.4047 83.1691 98.2945 83.1951C98.1843 83.2275 98.0578 83.2437 97.9152 83.2437C97.7466 83.2437 97.6072 83.208 97.4969 83.1367C97.3867 83.0719 97.3024 82.9811 97.244 82.8644C97.1857 82.7412 97.1468 82.605 97.1273 82.4559H97.0592C96.9425 82.618 96.7934 82.7606 96.6118 82.8838C96.4367 83.0005 96.2389 83.0913 96.0185 83.1562C95.798 83.221 95.5581 83.2534 95.2987 83.2534ZM95.5127 82.5337C95.7202 82.5337 95.9147 82.5012 96.0963 82.4364C96.2843 82.3716 96.4497 82.2808 96.5923 82.1641C96.735 82.0408 96.8485 81.8949 96.9328 81.7264C97.0171 81.5578 97.0592 81.3729 97.0592 81.1719V80.744C96.534 80.744 96.0866 80.7731 95.7169 80.8315C95.3473 80.8899 95.062 80.9936 94.861 81.1427C94.6665 81.2919 94.5692 81.5026 94.5692 81.775C94.5692 81.9501 94.6081 82.0927 94.6859 82.203C94.7637 82.3132 94.874 82.3975 95.0166 82.4559C95.1593 82.5077 95.3246 82.5337 95.5127 82.5337ZM101.056 83.2534C100.635 83.2534 100.272 83.1594 99.9667 82.9714C99.6684 82.7833 99.435 82.4915 99.2664 82.096C99.1043 81.6939 99.0232 81.1752 99.0232 80.5397C99.0232 79.9366 99.1075 79.4406 99.2761 79.0515C99.4447 78.6624 99.6782 78.3739 99.9765 78.1858C100.275 77.9978 100.622 77.9038 101.017 77.9038C101.244 77.9038 101.455 77.9297 101.649 77.9816C101.844 78.0335 102.016 78.1145 102.165 78.2247C102.321 78.335 102.457 78.4809 102.573 78.6624H102.632V76.1043H103.488V83.1367H102.797L102.719 82.4072H102.651C102.476 82.6925 102.249 82.9065 101.97 83.0492C101.692 83.1854 101.387 83.2534 101.056 83.2534ZM101.26 82.5045C101.585 82.5045 101.847 82.4332 102.048 82.2905C102.249 82.1478 102.395 81.9403 102.486 81.668C102.583 81.3956 102.632 81.0585 102.632 80.6564V80.5008C102.632 80.1506 102.596 79.8556 102.525 79.6157C102.454 79.3757 102.356 79.1844 102.233 79.0418C102.11 78.8991 101.967 78.7986 101.805 78.7403C101.643 78.6819 101.471 78.6527 101.29 78.6527C100.972 78.6527 100.712 78.7176 100.511 78.8473C100.31 78.9705 100.161 79.1682 100.064 79.4406C99.9667 79.7064 99.9181 80.0534 99.9181 80.4813V80.6856C99.9181 81.1265 99.97 81.4832 100.074 81.7555C100.177 82.0214 100.327 82.2127 100.521 82.3294C100.722 82.4461 100.969 82.5045 101.26 82.5045ZM106.935 83.2534C106.416 83.2534 105.978 83.1594 105.622 82.9714C105.272 82.7768 105.002 82.4818 104.814 82.0862C104.633 81.6907 104.542 81.1881 104.542 80.5786C104.542 79.9626 104.633 79.46 104.814 79.071C105.002 78.6754 105.272 78.3836 105.622 78.1956C105.978 78.001 106.416 77.9038 106.935 77.9038C107.454 77.9038 107.888 78.001 108.238 78.1956C108.595 78.3836 108.864 78.6754 109.045 79.071C109.227 79.46 109.318 79.9626 109.318 80.5786C109.318 81.1881 109.227 81.6907 109.045 82.0862C108.864 82.4818 108.595 82.7768 108.238 82.9714C107.888 83.1594 107.454 83.2534 106.935 83.2534ZM106.935 82.5337C107.265 82.5337 107.541 82.4688 107.762 82.3391C107.982 82.2094 108.147 82.0084 108.258 81.7361C108.374 81.4572 108.433 81.1071 108.433 80.6856V80.4716C108.433 80.0436 108.374 79.6935 108.258 79.4211C108.147 79.1488 107.982 78.9478 107.762 78.8181C107.541 78.6884 107.265 78.6235 106.935 78.6235C106.604 78.6235 106.325 78.6884 106.098 78.8181C105.878 78.9478 105.712 79.1488 105.602 79.4211C105.492 79.6935 105.437 80.0436 105.437 80.4716V80.6856C105.437 81.1071 105.492 81.4572 105.602 81.7361C105.712 82.0084 105.878 82.2094 106.098 82.3391C106.325 82.4688 106.604 82.5337 106.935 82.5337Z" fill="#535862"/>
<path d="M171.69 89.1172C172.358 89.1172 173.019 88.9807 173.632 88.716C174.245 88.4513 174.798 88.064 175.256 87.578C175.715 87.0919 176.069 86.5173 176.297 85.8895C176.525 85.2616 176.622 84.5938 176.583 83.9269C175.694 68.8314 170.939 54.2178 162.777 41.4884C154.614 28.759 143.317 18.341 129.969 11.2341C116.622 4.12729 101.672 0.570071 86.5536 0.903822C71.4355 1.23757 56.657 5.4511 43.636 13.1401C43.0608 13.4797 42.5611 13.9334 42.1675 14.4732C41.774 15.013 41.4949 15.6275 41.3475 16.279C41.2 16.9306 41.1873 17.6054 41.3101 18.262C41.4329 18.9187 41.6886 19.5433 42.0615 20.0975L47.5452 28.2476C48.2394 29.2793 49.2997 30.0086 50.5114 30.2878C51.7232 30.5671 52.9958 30.3753 54.0715 29.7515C64.1665 23.8968 75.5879 20.7131 87.2559 20.5014C98.924 20.2897 110.453 23.0569 120.754 28.5415C131.055 34.0261 139.787 42.0469 146.125 51.8458C152.463 61.6448 156.197 72.898 156.975 84.5421C157.058 85.7828 157.61 86.9457 158.518 87.7951C159.426 88.6446 160.623 89.1172 161.866 89.1172H171.69Z" fill="#D5D7DA"/>
<path d="M42.0592 20.0966C41.6863 19.5424 41.2041 19.0702 40.6421 18.7091C40.0801 18.348 39.4502 18.1056 38.7911 17.9967C38.132 17.8878 37.4576 17.9148 36.8094 18.076C36.1611 18.2372 35.5526 18.5292 35.0212 18.9341C24.9132 26.6362 16.5882 36.4309 10.6157 47.648C4.64323 58.8651 1.16422 71.24 0.416692 83.926C0.377397 84.5929 0.474817 85.2607 0.702972 85.8886C0.931127 86.5164 1.2852 87.091 1.74346 87.5771C2.20171 88.0631 2.75448 88.4504 3.36782 88.7151C3.98116 88.9798 4.64212 89.1163 5.31014 89.1163H15.1333C16.3768 89.1163 17.5738 88.6437 18.482 87.7942C19.3901 86.9448 19.9414 85.7819 20.0243 84.5412C20.6711 74.8606 23.3633 65.4271 27.9231 56.8632C32.4829 48.2992 38.8067 40.7995 46.4775 34.8587C47.4606 34.0973 48.1176 32.9907 48.3154 31.763C48.5133 30.5353 48.2371 29.2784 47.543 28.2467L42.0592 20.0966Z" fill="#FEDF89"/>
</svg>
