<svg width="793" height="793" viewBox="0 0 793 793" fill="none" xmlns="http://www.w3.org/2000/svg">
<mask id="mask0_695_10186" style="mask-type:alpha" maskUnits="userSpaceOnUse" x="0" y="0" width="793" height="793">
<circle cx="396.5" cy="396.5" r="396.5" fill="#D9D9D9"/>
</mask>
<g mask="url(#mask0_695_10186)">
<rect x="-1" width="794" height="794" fill="#C20000"/>
<path d="M246.5 649C238 655 238.167 658 245 658.5H484C493.6 656.1 488 647.5 484 643.5L399.5 560C382.7 532.4 399.167 513.167 409.5 507L518 453C546.8 437 551.333 413.333 550 403.5V305.5H592C599.2 299.9 595 292.167 592 289L407.5 142C397.1 130 387.167 137 383.5 142L200.5 289C190.5 302.2 199.667 305.5 205.5 305.5H241.5C241.667 349.833 241.9 442.4 241.5 458C241.1 473.6 255 470.833 262 467.5L342.5 433.5C342.167 409.833 341.7 360 342.5 350C343.5 337.5 352 312.5 394 305.5C427.6 299.9 445.333 332.833 450 350V426.5C372.5 446.5 342.5 467.5 299 492C273.8 509.2 273.833 533.167 277 543L293.5 581C306 618 260.75 638.941 246.5 649Z" fill="white"/>
</g>
</svg>
