<svg width="28" height="28" viewBox="0 0 28 28" fill="none" xmlns="http://www.w3.org/2000/svg">
<path d="M15.1367 6.04543C15.1367 7.30063 12.3385 8.31816 8.88672 8.31816C5.43494 8.31816 2.63672 7.30063 2.63672 6.04543M15.1367 6.04543C15.1367 4.79024 12.3385 3.77271 8.88672 3.77271C5.43494 3.77271 2.63672 4.79024 2.63672 6.04543M15.1367 6.04543V7.74998M2.63672 6.04543V19.6818C2.63672 20.937 5.43494 21.9545 8.88672 21.9545M8.88672 12.8636C8.69519 12.8636 8.50567 12.8605 8.31854 12.8543C5.13302 12.75 2.63672 11.7764 2.63672 10.5909M8.88672 17.4091C5.43494 17.4091 2.63672 16.3915 2.63672 15.1363M25.364 13.4318C25.364 14.687 22.5658 15.7045 19.114 15.7045C15.6622 15.7045 12.864 14.687 12.864 13.4318M25.364 13.4318C25.364 12.1766 22.5658 11.1591 19.114 11.1591C15.6622 11.1591 12.864 12.1766 12.864 13.4318M25.364 13.4318V21.9545C25.364 23.2097 22.5658 24.2273 19.114 24.2273C15.6622 24.2273 12.864 23.2097 12.864 21.9545V13.4318M25.364 17.6932C25.364 18.9484 22.5658 19.9659 19.114 19.9659C15.6622 19.9659 12.864 18.9484 12.864 17.6932" stroke="#01C764" stroke-width="2" stroke-linecap="round" stroke-linejoin="round"/>
</svg>
