<svg width="44" height="44" viewBox="0 0 44 44" fill="none" xmlns="http://www.w3.org/2000/svg">
<rect width="44" height="44" rx="22" fill="#FDB022"/>
<path d="M30 19.5V16.8C30 15.1198 30 14.2798 29.673 13.638C29.3854 13.0735 28.9265 12.6146 28.362 12.327C27.7202 12 26.8802 12 25.2 12H18.8C17.1198 12 16.2798 12 15.638 12.327C15.0735 12.6146 14.6146 13.0735 14.327 13.638C14 14.2798 14 15.1198 14 16.8V27.2C14 28.8802 14 29.7202 14.327 30.362C14.6146 30.9265 15.0735 31.3854 15.638 31.673C16.2798 32 17.1198 32 18.8 32H24M24 21H18M20 25H18M26 17H18M26.5 25.0022C26.6762 24.5014 27.024 24.079 27.4817 23.81C27.9395 23.5409 28.4777 23.4426 29.001 23.5324C29.5243 23.6221 29.999 23.8942 30.3409 24.3004C30.6829 24.7066 30.87 25.2207 30.8692 25.7517C30.8692 27.2506 28.6209 28 28.6209 28M28.6499 31H28.6599" stroke="white" stroke-width="1.5" stroke-linecap="round" stroke-linejoin="round"/>
</svg>
