<svg width="41" height="40" viewBox="0 0 41 40" fill="none" xmlns="http://www.w3.org/2000/svg">
<path d="M9.5 0.75H26.5439L34.75 8.28711V36C34.75 37.7949 33.2948 39.2499 31.5 39.25H9.5C7.70507 39.25 6.25 37.7949 6.25 36V4C6.25 2.20508 7.70508 0.75 9.5 0.75Z" stroke="#DDDEE1" stroke-width="1.5"/>
<mask id="path-2-inside-1_1407_11622" fill="white">
<path d="M25.5 1H34V9.5H26.5C25.9477 9.5 25.5 9.05228 25.5 8.5V1Z"/>
</mask>
<path d="M25.5 1H34H25.5ZM34 10.5H26.5C25.3954 10.5 24.5 9.60457 24.5 8.5H26.5H34V10.5ZM26.5 10.5C25.3954 10.5 24.5 9.60457 24.5 8.5V1H26.5V8.5V10.5ZM34 1V9.5V1Z" fill="#DDDEE1" mask="url(#path-2-inside-1_1407_11622)"/>
<rect x="1.5" y="20" width="23" height="13" rx="2" fill="#F04438"/>
<path d="M9.4827 25.24C9.4827 25.6467 9.38936 26.02 9.2027 26.36C9.01603 26.6933 8.72936 26.9633 8.3427 27.17C7.95603 27.3767 7.47603 27.48 6.9027 27.48H5.8427V30H4.1327V22.98H6.9027C7.4627 22.98 7.93603 23.0767 8.3227 23.27C8.70936 23.4633 8.99936 23.73 9.1927 24.07C9.38603 24.41 9.4827 24.8 9.4827 25.24ZM6.7727 26.12C7.09936 26.12 7.3427 26.0433 7.5027 25.89C7.6627 25.7367 7.7427 25.52 7.7427 25.24C7.7427 24.96 7.6627 24.7433 7.5027 24.59C7.3427 24.4367 7.09936 24.36 6.7727 24.36H5.8427V26.12H6.7727ZM13.0029 22.98C13.7429 22.98 14.3896 23.1267 14.9429 23.42C15.4963 23.7133 15.9229 24.1267 16.2229 24.66C16.5296 25.1867 16.6829 25.7967 16.6829 26.49C16.6829 27.1767 16.5296 27.7867 16.2229 28.32C15.9229 28.8533 15.4929 29.2667 14.9329 29.56C14.3796 29.8533 13.7363 30 13.0029 30H10.3729V22.98H13.0029ZM12.8929 28.52C13.5396 28.52 14.0429 28.3433 14.4029 27.99C14.7629 27.6367 14.9429 27.1367 14.9429 26.49C14.9429 25.8433 14.7629 25.34 14.4029 24.98C14.0429 24.62 13.5396 24.44 12.8929 24.44H12.0829V28.52H12.8929ZM22.2086 22.98V24.35H19.3486V25.83H21.4886V27.16H19.3486V30H17.6386V22.98H22.2086Z" fill="white"/>
</svg>
