<svg width="24" height="25" viewBox="0 0 24 25" fill="none" xmlns="http://www.w3.org/2000/svg">
<path d="M8.5 15.4215C8.5 16.7102 9.54467 17.7548 10.8333 17.7548H13C14.3807 17.7548 15.5 16.6355 15.5 15.2548C15.5 13.8741 14.3807 12.7548 13 12.7548H11C9.61929 12.7548 8.5 11.6355 8.5 10.2548C8.5 8.87411 9.61929 7.75482 11 7.75482H13.1667C14.4553 7.75482 15.5 8.79949 15.5 10.0882M12 6.25482V7.75482M12 17.7548V19.2548M22 12.7548C22 18.2777 17.5228 22.7548 12 22.7548C6.47715 22.7548 2 18.2777 2 12.7548C2 7.23197 6.47715 2.75482 12 2.75482C17.5228 2.75482 22 7.23197 22 12.7548Z" stroke="#252B37" stroke-width="1.5" stroke-linecap="round" stroke-linejoin="round"/>
</svg>
