<svg width="25" height="25" viewBox="0 0 25 25" fill="none" xmlns="http://www.w3.org/2000/svg">
<path d="M8.90909 15.4215C8.90909 16.7102 9.95376 17.7548 11.2424 17.7548H13.4091C14.7898 17.7548 15.9091 16.6355 15.9091 15.2548C15.9091 13.8741 14.7898 12.7548 13.4091 12.7548H11.4091C10.0284 12.7548 8.90909 11.6355 8.90909 10.2548C8.90909 8.87411 10.0284 7.75482 11.4091 7.75482H13.5758C14.8644 7.75482 15.9091 8.79949 15.9091 10.0882M12.4091 6.25482V7.75482M12.4091 17.7548V19.2548M22.4091 12.7548C22.4091 18.2777 17.9319 22.7548 12.4091 22.7548C6.88624 22.7548 2.40909 18.2777 2.40909 12.7548C2.40909 7.23197 6.88624 2.75482 12.4091 2.75482C17.9319 2.75482 22.4091 7.23197 22.4091 12.7548Z" stroke="white" stroke-width="1.5" stroke-linecap="round" stroke-linejoin="round"/>
</svg>
