<svg width="25" height="25" viewBox="0 0 25 25" fill="none" xmlns="http://www.w3.org/2000/svg">
<path d="M12.9091 2.93671H15.6091C17.2892 2.93671 18.1293 2.93671 18.7711 3.26369C19.3355 3.55131 19.7945 4.01025 20.0821 4.57474C20.4091 5.21647 20.4091 6.05655 20.4091 7.73671V18.1367C20.4091 19.8169 20.4091 20.6569 20.0821 21.2987C19.7945 21.8632 19.3355 22.3221 18.7711 22.6097C18.1293 22.9367 17.2892 22.9367 15.6091 22.9367H9.20909C7.52893 22.9367 6.68885 22.9367 6.04712 22.6097C5.48263 22.3221 5.02369 21.8632 4.73607 21.2987C4.40909 20.6569 4.40909 19.8169 4.40909 18.1367V17.4367M16.4091 13.9367H11.9091M16.4091 9.93671H12.9091M16.4091 17.9367H8.40909M6.40909 10.9367V5.43671C6.40909 4.60828 7.08066 3.93671 7.90909 3.93671C8.73752 3.93671 9.40909 4.60828 9.40909 5.43671V10.9367C9.40909 12.5936 8.06594 13.9367 6.40909 13.9367C4.75223 13.9367 3.40909 12.5936 3.40909 10.9367V6.93671" stroke="white" stroke-width="1.5" stroke-linecap="round" stroke-linejoin="round"/>
</svg>
