<svg width="43" height="43" viewBox="0 0 43 43" fill="none" xmlns="http://www.w3.org/2000/svg">
<rect width="43" height="43" rx="21.5" fill="#FF0100"/>
<path d="M11.5 21.5H12.5M15.5 17.5H13.5C13.2348 17.5 12.9804 17.6054 12.7929 17.7929C12.6054 17.9804 12.5 18.2348 12.5 18.5V24.5C12.5 24.7652 12.6054 25.0196 12.7929 25.2071C12.9804 25.3946 13.2348 25.5 13.5 25.5H15.5M18.5 21.5H24.5M27.5 17.5H29.5C29.7652 17.5 30.0196 17.6054 30.2071 17.7929C30.3946 17.9804 30.5 18.2348 30.5 18.5V24.5C30.5 24.7652 30.3946 25.0196 30.2071 25.2071C30.0196 25.3946 29.7652 25.5 29.5 25.5H27.5M31.5 21.5H30.5M15.5 16.5V26.5C15.5 26.7652 15.6054 27.0196 15.7929 27.2071C15.9804 27.3946 16.2348 27.5 16.5 27.5H17.5C17.7652 27.5 18.0196 27.3946 18.2071 27.2071C18.3946 27.0196 18.5 26.7652 18.5 26.5V16.5C18.5 16.2348 18.3946 15.9804 18.2071 15.7929C18.0196 15.6054 17.7652 15.5 17.5 15.5H16.5C16.2348 15.5 15.9804 15.6054 15.7929 15.7929C15.6054 15.9804 15.5 16.2348 15.5 16.5ZM24.5 16.5V26.5C24.5 26.7652 24.6054 27.0196 24.7929 27.2071C24.9804 27.3946 25.2348 27.5 25.5 27.5H26.5C26.7652 27.5 27.0196 27.3946 27.2071 27.2071C27.3946 27.0196 27.5 26.7652 27.5 26.5V16.5C27.5 16.2348 27.3946 15.9804 27.2071 15.7929C27.0196 15.6054 26.7652 15.5 26.5 15.5H25.5C25.2348 15.5 24.9804 15.6054 24.7929 15.7929C24.6054 15.9804 24.5 16.2348 24.5 16.5Z" stroke="white" stroke-width="2" stroke-linecap="round" stroke-linejoin="round"/>
</svg>
