<svg width="25" height="25" viewBox="0 0 25 25" fill="none" xmlns="http://www.w3.org/2000/svg">
<path d="M12.4091 21.5731L12.309 21.423C11.6144 20.381 11.2671 19.86 10.8082 19.4829C10.4019 19.149 9.93385 18.8985 9.43069 18.7457C8.86234 18.5731 8.2362 18.5731 6.98391 18.5731H5.60909C4.48898 18.5731 3.92893 18.5731 3.50111 18.3551C3.12478 18.1633 2.81882 17.8574 2.62708 17.481C2.40909 17.0532 2.40909 16.4932 2.40909 15.3731V6.77306C2.40909 5.65295 2.40909 5.0929 2.62708 4.66508C2.81882 4.28875 3.12478 3.98279 3.50111 3.79105C3.92893 3.57306 4.48898 3.57306 5.60909 3.57306H6.00909C8.2493 3.57306 9.3694 3.57306 10.225 4.00903C10.9777 4.39253 11.5896 5.00445 11.9731 5.7571C12.4091 6.61274 12.4091 7.73285 12.4091 9.97306M12.4091 21.5731V9.97306M12.4091 21.5731L12.5091 21.423C13.2038 20.381 13.5511 19.86 14.01 19.4829C14.4162 19.149 14.8843 18.8985 15.3875 18.7457C15.9558 18.5731 16.582 18.5731 17.8343 18.5731H19.2091C20.3292 18.5731 20.8892 18.5731 21.3171 18.3551C21.6934 18.1633 21.9994 17.8574 22.1911 17.481C22.4091 17.0532 22.4091 16.4932 22.4091 15.3731V6.77306C22.4091 5.65295 22.4091 5.0929 22.1911 4.66508C21.9994 4.28875 21.6934 3.98279 21.3171 3.79105C20.8892 3.57306 20.3292 3.57306 19.2091 3.57306H18.8091C16.5689 3.57306 15.4488 3.57306 14.5931 4.00903C13.8405 4.39253 13.2286 5.00445 12.8451 5.7571C12.4091 6.61274 12.4091 7.73285 12.4091 9.97306" stroke="white" stroke-width="1.5" stroke-linecap="round" stroke-linejoin="round"/>
</svg>
