<svg width="24" height="25" viewBox="0 0 24 25" fill="none" xmlns="http://www.w3.org/2000/svg">
<path d="M12 21.5731L11.8999 21.423C11.2053 20.381 10.858 19.86 10.3991 19.4829C9.99286 19.149 9.52476 18.8985 9.02161 18.7457C8.45325 18.5731 7.82711 18.5731 6.57482 18.5731H5.2C4.07989 18.5731 3.51984 18.5731 3.09202 18.3551C2.71569 18.1633 2.40973 17.8574 2.21799 17.481C2 17.0532 2 16.4932 2 15.3731V6.77306C2 5.65295 2 5.0929 2.21799 4.66508C2.40973 4.28875 2.71569 3.98279 3.09202 3.79105C3.51984 3.57306 4.07989 3.57306 5.2 3.57306H5.6C7.84021 3.57306 8.96031 3.57306 9.81596 4.00903C10.5686 4.39253 11.1805 5.00445 11.564 5.7571C12 6.61274 12 7.73285 12 9.97306M12 21.5731V9.97306M12 21.5731L12.1001 21.423C12.7947 20.381 13.142 19.86 13.6009 19.4829C14.0071 19.149 14.4752 18.8985 14.9784 18.7457C15.5467 18.5731 16.1729 18.5731 17.4252 18.5731H18.8C19.9201 18.5731 20.4802 18.5731 20.908 18.3551C21.2843 18.1633 21.5903 17.8574 21.782 17.481C22 17.0532 22 16.4932 22 15.3731V6.77306C22 5.65295 22 5.0929 21.782 4.66508C21.5903 4.28875 21.2843 3.98279 20.908 3.79105C20.4802 3.57306 19.9201 3.57306 18.8 3.57306H18.4C16.1598 3.57306 15.0397 3.57306 14.184 4.00903C13.4314 4.39253 12.8195 5.00445 12.436 5.7571C12 6.61274 12 7.73285 12 9.97306" stroke="#252B37" stroke-width="1.5" stroke-linecap="round" stroke-linejoin="round"/>
</svg>
