<svg width="400" height="524" viewBox="0 0 400 524" fill="none" xmlns="http://www.w3.org/2000/svg">
<path d="M50.5001 514C42.0001 520 42.1668 523 49.0001 523.5H287.385C287.793 523.5 288.21 523.452 288.602 523.336C297.359 520.73 291.914 512.414 288 508.5L203.937 425.432C203.647 425.145 203.386 424.814 203.177 424.464C186.914 397.151 203.234 378.127 213.5 372L322 318C350.8 302 355.333 278.333 354 268.5V175.5C354 172.739 356.239 170.5 359 170.5H394.285C395.396 170.5 396.505 170.155 397.284 169.361C402.649 163.896 398.801 156.957 396 154L211.861 7.28722C211.621 7.09604 211.394 6.87555 211.189 6.64681C201.259 -4.46237 191.808 1.59313 187.899 6.47937C187.627 6.81995 187.328 7.13817 186.988 7.4113L4.98151 153.613C4.66182 153.87 4.36558 154.175 4.12282 154.506C-5.264 167.284 3.74203 170.5 9.50015 170.5H40.5189C43.273 170.5 45.5085 172.711 45.5184 175.465C45.6828 221.393 45.8858 307.961 45.5001 323C45.1001 338.6 59.0001 335.833 66.0001 332.5L143.399 299.81C145.274 299.018 146.481 297.185 146.454 295.15C146.127 270.427 145.736 224.55 146.5 215C147.5 202.5 156 177.5 198 170.5C231.193 164.968 248.901 197.041 253.825 214.369C253.946 214.795 254 215.224 254 215.668V287.627C254 289.907 252.425 291.905 250.22 292.486C175.511 312.191 145.786 332.902 103 357C77.8001 374.2 77.8335 398.167 81.0001 408L97.5001 446C110 483 64.7503 503.941 50.5001 514Z" fill="black"/>
</svg>
