<svg width="43" height="43" viewBox="0 0 43 43" fill="none" xmlns="http://www.w3.org/2000/svg">
<rect width="43" height="43" rx="21.5" fill="#FF0100"/>
<path d="M24.2003 23C23.1003 21 22.7593 20.5 21.5003 20.5C20.2413 20.5 19.7643 21.255 18.6643 23.247C17.7223 24.95 15.8183 25.092 15.3433 26.538C15.2463 26.803 15.1983 27.215 15.2003 27.5C15.2003 28.676 15.9873 29.5 17.0003 29.5C18.2593 29.5 20.0003 28.5 21.5003 28.5C23.0003 28.5 24.7413 29.5 26.0003 29.5C27.0133 29.5 27.8003 28.677 27.8003 27.5C27.8003 27.215 27.7513 26.803 27.6543 26.538C27.1793 25.087 25.1423 24.703 24.2003 23Z" stroke="white" stroke-width="2" stroke-linecap="round" stroke-linejoin="round"/>
<path d="M29.6882 17.582C29.5597 17.5277 29.4216 17.4998 29.2822 17.5H29.2672C28.5322 17.512 27.7072 18.25 27.2742 19.366C26.7552 20.701 26.9942 22.066 27.8122 22.418C27.9412 22.473 28.0792 22.5 28.2182 22.5C28.9572 22.5 29.7932 21.758 30.2292 20.634C30.7452 19.299 30.5012 17.934 29.6882 17.582Z" stroke="white" stroke-width="2" stroke-linecap="round" stroke-linejoin="round"/>
<path d="M18.9736 18.5C19.0286 18.5 19.0826 18.5 19.1366 18.489C20.0806 18.361 20.6696 17.143 20.4566 15.767C20.2536 14.47 19.4096 13.5 18.5246 13.5C18.4696 13.5 18.4156 13.5 18.3616 13.511C17.4176 13.639 16.8286 14.857 17.0416 16.233C17.2456 17.526 18.0896 18.5 18.9746 18.5H18.9736Z" stroke="white" stroke-width="2" stroke-linecap="round" stroke-linejoin="round"/>
<path d="M25.9559 16.233C26.1699 14.857 25.5809 13.639 24.6359 13.511C24.5822 13.5036 24.5281 13.4999 24.4739 13.5C23.5889 13.5 22.7459 14.47 22.5439 15.767C22.3299 17.143 22.9189 18.361 23.8639 18.489C23.9179 18.496 23.9719 18.5 24.0259 18.5C24.9109 18.5 25.7559 17.526 25.9559 16.233Z" stroke="white" stroke-width="2" stroke-linecap="round" stroke-linejoin="round"/>
<path d="M15.1898 22.418C16.0058 22.066 16.2438 20.699 15.7258 19.366C15.2898 18.242 14.4548 17.5 13.7168 17.5C13.5768 17.5 13.4398 17.527 13.3098 17.582C12.4938 17.934 12.2558 19.301 12.7738 20.634C13.2098 21.758 14.0448 22.5 14.7828 22.5C14.9228 22.5 15.0598 22.473 15.1898 22.418Z" stroke="white" stroke-width="2" stroke-linecap="round" stroke-linejoin="round"/>
</svg>
