<svg width="24" height="25" viewBox="0 0 24 25" fill="none" xmlns="http://www.w3.org/2000/svg">
<path d="M7.5 11.3003H4.6C4.03995 11.3003 3.75992 11.3003 3.54601 11.4093C3.35785 11.5052 3.20487 11.6581 3.10899 11.8463C3 12.0602 3 12.3402 3 12.9003V21.3003M16.5 11.3003H19.4C19.9601 11.3003 20.2401 11.3003 20.454 11.4093C20.6422 11.5052 20.7951 11.6581 20.891 11.8463C21 12.0602 21 12.3402 21 12.9003V21.3003M16.5 21.3003V6.50029C16.5 5.38019 16.5 4.82014 16.282 4.39231C16.0903 4.01599 15.7843 3.71003 15.408 3.51828C14.9802 3.30029 14.4201 3.30029 13.3 3.30029H10.7C9.57989 3.30029 9.01984 3.30029 8.59202 3.51828C8.21569 3.71003 7.90973 4.01599 7.71799 4.39231C7.5 4.82014 7.5 5.38019 7.5 6.50029V21.3003M22 21.3003H2M11 7.30029H13M11 11.3003H13M11 15.3003H13" stroke="#252B37" stroke-width="1.5" stroke-linecap="round" stroke-linejoin="round"/>
</svg>
