<svg width="25" height="24" viewBox="0 0 25 24" fill="none" xmlns="http://www.w3.org/2000/svg">
<path d="M9.89399 21C10.5991 21.6224 11.5254 22 12.5398 22C13.5543 22 14.4805 21.6224 15.1856 21M18.5398 8C18.5398 6.4087 17.9077 4.88258 16.7825 3.75736C15.6572 2.63214 14.1311 2 12.5398 2C10.9485 2 9.42239 2.63214 8.29717 3.75736C7.17195 4.88258 6.53981 6.4087 6.53981 8C6.53981 11.0902 5.76028 13.206 4.88948 14.6054C4.15494 15.7859 3.78767 16.3761 3.80114 16.5408C3.81605 16.7231 3.85467 16.7926 4.00159 16.9016C4.13427 17 4.7324 17 5.92867 17H19.151C20.3472 17 20.9454 17 21.078 16.9016C21.225 16.7926 21.2636 16.7231 21.2785 16.5408C21.292 16.3761 20.9247 15.7859 20.1901 14.6054C19.3193 13.206 18.5398 11.0902 18.5398 8Z" stroke="#18181B" stroke-width="1.5" stroke-linecap="round" stroke-linejoin="round"/>
</svg>
