<svg width="45" height="46" viewBox="0 0 45 46" fill="none" xmlns="http://www.w3.org/2000/svg">
<circle cx="22.5" cy="23" r="22.5" fill="#01C764"/>
<path d="M24.5295 19.3519C23.9571 19.7599 23.2566 20 22.5 20C20.567 20 19 18.433 19 16.5C19 14.567 20.567 13 22.5 13C23.753 13 24.8522 13.6584 25.4705 14.6481M17 31.0872H19.6103C19.9506 31.0872 20.2889 31.1277 20.6188 31.2086L23.3769 31.8789C23.9753 32.0247 24.5988 32.0388 25.2035 31.9214L28.253 31.3281C29.0585 31.1712 29.7996 30.7854 30.3803 30.2205L32.5379 28.1217C33.154 27.5234 33.154 26.5524 32.5379 25.9531C31.9832 25.4134 31.1047 25.3527 30.4771 25.8103L27.9626 27.6449C27.6025 27.9081 27.1643 28.0498 26.7137 28.0498H24.2855L25.8311 28.0498C26.7022 28.0498 27.4079 27.3633 27.4079 26.5159V26.2091C27.4079 25.5055 26.9156 24.892 26.2141 24.7219L23.8286 24.1417C23.4404 24.0476 23.0428 24 22.6431 24C21.6783 24 19.9319 24.7988 19.9319 24.7988L17 26.0249M31 17.5C31 19.433 29.433 21 27.5 21C25.567 21 24 19.433 24 17.5C24 15.567 25.567 14 27.5 14C29.433 14 31 15.567 31 17.5ZM13 25.6L13 31.4C13 31.9601 13 32.2401 13.109 32.454C13.2049 32.6422 13.3578 32.7951 13.546 32.891C13.7599 33 14.0399 33 14.6 33H15.4C15.9601 33 16.2401 33 16.454 32.891C16.6422 32.7951 16.7951 32.6422 16.891 32.454C17 32.2401 17 31.9601 17 31.4V25.6C17 25.0399 17 24.7599 16.891 24.546C16.7951 24.3578 16.6422 24.2049 16.454 24.109C16.2401 24 15.9601 24 15.4 24L14.6 24C14.0399 24 13.7599 24 13.546 24.109C13.3578 24.2049 13.2049 24.3578 13.109 24.546C13 24.7599 13 25.0399 13 25.6Z" stroke="white" stroke-width="2" stroke-linecap="round" stroke-linejoin="round"/>
</svg>
