<svg width="43" height="43" viewBox="0 0 43 43" fill="none" xmlns="http://www.w3.org/2000/svg">
<rect width="43" height="43" rx="21.5" fill="#FF0100"/>
<path d="M11.5 15.5C12.1 16 12.7 16.5 14 16.5C16.5 16.5 16.5 14.5 19 14.5C20.3 14.5 20.9 15 21.5 15.5C22.1 16 22.7 16.5 24 16.5C26.5 16.5 26.5 14.5 29 14.5C30.3 14.5 30.9 15 31.5 15.5M11.5 27.5C12.1 28 12.7 28.5 14 28.5C16.5 28.5 16.5 26.5 19 26.5C20.3 26.5 20.9 27 21.5 27.5C22.1 28 22.7 28.5 24 28.5C26.5 28.5 26.5 26.5 29 26.5C30.3 26.5 30.9 27 31.5 27.5M11.5 21.5C12.1 22 12.7 22.5 14 22.5C16.5 22.5 16.5 20.5 19 20.5C20.3 20.5 20.9 21 21.5 21.5C22.1 22 22.7 22.5 24 22.5C26.5 22.5 26.5 20.5 29 20.5C30.3 20.5 30.9 21 31.5 21.5" stroke="white" stroke-width="2" stroke-linecap="round" stroke-linejoin="round"/>
</svg>
