<svg width="25" height="25" viewBox="0 0 25 25" fill="none" xmlns="http://www.w3.org/2000/svg">
<path d="M10.9087 9.39335C11.0849 8.89247 11.4327 8.47012 11.8904 8.20109C12.3482 7.93206 12.8864 7.83372 13.4097 7.92348C13.9331 8.01324 14.4077 8.28532 14.7497 8.69152C15.0916 9.09772 15.2787 9.61183 15.278 10.1428C15.278 11.6417 13.0296 12.3911 13.0296 12.3911M13.0586 15.3911H13.0686M12.9087 20.3911C17.6031 20.3911 21.4087 16.5855 21.4087 11.8911C21.4087 7.19669 17.6031 3.39111 12.9087 3.39111C8.21429 3.39111 4.40871 7.19669 4.40871 11.8911C4.40871 12.8411 4.56456 13.7547 4.85208 14.6077C4.96028 14.9287 5.01438 15.0892 5.02414 15.2125C5.03378 15.3343 5.02649 15.4197 4.99637 15.5381C4.96586 15.6579 4.89851 15.7826 4.76381 16.0319L3.12815 19.0595C2.89484 19.4913 2.77818 19.7072 2.80429 19.8739C2.82703 20.019 2.91246 20.1468 3.03789 20.2233C3.18189 20.3112 3.42601 20.286 3.91425 20.2355L9.03528 19.7061C9.19036 19.6901 9.2679 19.6821 9.33857 19.6848C9.40809 19.6874 9.45716 19.694 9.52495 19.7096C9.59387 19.7255 9.68053 19.7589 9.85387 19.8256C10.8019 20.1909 11.8319 20.3911 12.9087 20.3911Z" stroke="white" stroke-width="1.5" stroke-linecap="round" stroke-linejoin="round"/>
</svg>
