<svg width="43" height="43" viewBox="0 0 43 43" fill="none" xmlns="http://www.w3.org/2000/svg">
<rect width="43" height="43" rx="21.5" fill="#FF0100"/>
<path d="M31.5 30.5V28.5C31.5 26.6362 30.2252 25.0701 28.5 24.626M25 12.7908C26.4659 13.3841 27.5 14.8213 27.5 16.5C27.5 18.1787 26.4659 19.6159 25 20.2092M26.5 30.5C26.5 28.6362 26.5 27.7044 26.1955 26.9693C25.7895 25.9892 25.0108 25.2105 24.0307 24.8045C23.2956 24.5 22.3638 24.5 20.5 24.5H17.5C15.6362 24.5 14.7044 24.5 13.9693 24.8045C12.9892 25.2105 12.2105 25.9892 11.8045 26.9693C11.5 27.7044 11.5 28.6362 11.5 30.5M23 16.5C23 18.7091 21.2091 20.5 19 20.5C16.7909 20.5 15 18.7091 15 16.5C15 14.2909 16.7909 12.5 19 12.5C21.2091 12.5 23 14.2909 23 16.5Z" stroke="white" stroke-width="2" stroke-linecap="round" stroke-linejoin="round"/>
</svg>
