<svg width="25" height="26" viewBox="0 0 25 26" fill="none" xmlns="http://www.w3.org/2000/svg">
<path d="M12.2364 2.68689L14.288 8.02096C14.5755 8.76862 14.7193 9.14245 14.9429 9.4569C15.1411 9.73559 15.3846 9.97909 15.6633 10.1773C15.9777 10.4008 16.3515 10.5446 17.0992 10.8322L22.4333 12.8838L17.0992 14.9353C16.3515 15.2229 15.9777 15.3667 15.6633 15.5903C15.3846 15.7884 15.1411 16.0319 14.9429 16.3106C14.7193 16.6251 14.5755 16.9989 14.288 17.7465L12.2364 23.0806L10.1848 17.7465C9.89729 16.9989 9.7535 16.6251 9.52991 16.3106C9.33175 16.0319 9.08825 15.7884 8.80956 15.5903C8.49511 15.3667 8.12128 15.2229 7.37362 14.9353L2.03955 12.8838L7.37361 10.8322C8.12128 10.5446 8.49511 10.4008 8.80956 10.1773C9.08825 9.97909 9.33175 9.73559 9.52991 9.4569C9.7535 9.14245 9.89729 8.76862 10.1848 8.02095L12.2364 2.68689Z" stroke="#252B37" stroke-width="1.52953" stroke-linecap="round" stroke-linejoin="round"/>
</svg>
