<svg width="47" height="47" viewBox="0 0 47 47" fill="none" xmlns="http://www.w3.org/2000/svg">
<rect width="46.7273" height="46.7273" rx="23.3636" fill="#FECDCA"/>
<path d="M20.3638 23.3636L22.3638 25.3636L26.8638 20.8636M29.265 16.3622C29.4709 16.8602 29.8661 17.256 30.3638 17.4627L32.109 18.1856C32.6071 18.3919 33.0027 18.7876 33.209 19.2857C33.4153 19.7838 33.4153 20.3434 33.209 20.8415L32.4867 22.5855C32.2803 23.0837 32.28 23.6439 32.4873 24.142L33.2084 25.8854C33.3107 26.1321 33.3634 26.3965 33.3634 26.6636C33.3635 26.9306 33.3109 27.1951 33.2087 27.4418C33.1065 27.6885 32.9567 27.9127 32.7679 28.1015C32.579 28.2903 32.3548 28.44 32.1081 28.5421L30.3641 29.2645C29.8661 29.4704 29.4703 29.8657 29.2636 30.3634L28.5407 32.1087C28.3344 32.6067 27.9387 33.0024 27.4407 33.2087C26.9426 33.4151 26.383 33.4151 25.885 33.2088L24.1411 32.4864C23.643 32.2806 23.0836 32.281 22.5858 32.4875L20.8407 33.2094C20.3429 33.4152 19.7838 33.4151 19.2861 33.2089C18.7885 33.0028 18.393 32.6075 18.1866 32.11L17.4635 30.3642C17.2576 29.8662 16.8623 29.4703 16.3646 29.2637L14.6194 28.5408C14.1216 28.3346 13.726 27.9391 13.5197 27.4413C13.3133 26.9435 13.313 26.3842 13.5189 25.8862L14.2412 24.1422C14.447 23.6441 14.4466 23.0847 14.2401 22.5869L13.5187 20.8404C13.4165 20.5937 13.3638 20.3293 13.3638 20.0623C13.3637 19.7952 13.4163 19.5308 13.5185 19.2841C13.6207 19.0374 13.7705 18.8132 13.9593 18.6244C14.1482 18.4356 14.3724 18.2859 14.6191 18.1838L16.3631 17.4614C16.8606 17.2556 17.2563 16.8608 17.4631 16.3637L18.186 14.6185C18.3922 14.1204 18.7879 13.7247 19.286 13.5184C19.784 13.3121 20.3436 13.3121 20.8417 13.5184L22.5856 14.2408C23.0837 14.4466 23.6431 14.4461 24.1408 14.2396L25.8867 13.5195C26.3847 13.3133 26.9442 13.3133 27.4421 13.5196C27.9401 13.7259 28.3357 14.1215 28.5421 14.6194L29.2652 16.3652L29.265 16.3622Z" stroke="#F04438" stroke-width="2" stroke-linecap="round" stroke-linejoin="round"/>
</svg>
