<svg width="47" height="47" viewBox="0 0 47 47" fill="none" xmlns="http://www.w3.org/2000/svg">
<rect width="46.7273" height="46.7273" rx="23.3636" fill="#FEDF89"/>
<path d="M24.3638 17.3636L17.8656 18.6633C17.5026 18.7359 17.3211 18.7722 17.1733 18.8604C17.0426 18.9385 16.9315 19.0453 16.8484 19.1728C16.7543 19.317 16.7109 19.4969 16.624 19.8568L13.3638 33.3636M13.3638 33.3636L26.8706 30.1033C27.2305 30.0165 27.4104 29.9731 27.5546 29.879C27.6821 29.7959 27.7889 29.6848 27.867 29.5541C27.9552 29.4063 27.9915 29.2248 28.0641 28.8618L29.3638 22.3636M13.3638 33.3636L20.9498 25.7776M32.2324 19.2322L27.4951 14.495C27.0991 14.099 26.9011 13.901 26.6728 13.8268C26.4719 13.7615 26.2556 13.7615 26.0548 13.8268C25.8264 13.901 25.6284 14.099 25.2324 14.495L24.4951 15.2322C24.0991 15.6283 23.9011 15.8263 23.8269 16.0546C23.7617 16.2554 23.7617 16.4718 23.8269 16.6726C23.9011 16.901 24.0991 17.099 24.4951 17.495L29.2324 22.2322C29.6284 22.6283 29.8264 22.8263 30.0548 22.9005C30.2556 22.9657 30.4719 22.9657 30.6728 22.9005C30.9011 22.8263 31.0991 22.6283 31.4951 22.2322L32.2324 21.495C32.6284 21.099 32.8264 20.901 32.9006 20.6726C32.9659 20.4718 32.9659 20.2554 32.9006 20.0546C32.8264 19.8263 32.6284 19.6283 32.2324 19.2322ZM22.3638 22.3636C23.4683 22.3636 24.3638 23.259 24.3638 24.3636C24.3638 25.4682 23.4683 26.3636 22.3638 26.3636C21.2592 26.3636 20.3638 25.4682 20.3638 24.3636C20.3638 23.259 21.2592 22.3636 22.3638 22.3636Z" stroke="#F79009" stroke-width="2" stroke-linecap="round" stroke-linejoin="round"/>
</svg>
