<svg width="47" height="48" viewBox="0 0 47 48" fill="none" xmlns="http://www.w3.org/2000/svg">
<rect y="0.727295" width="46.7273" height="46.7273" rx="23.3636" fill="#B2DDFF"/>
<path d="M25.3633 14.3604V18.4909C25.3633 19.0509 25.3633 19.331 25.4723 19.5449C25.5681 19.733 25.7211 19.886 25.9093 19.9819C26.1232 20.0909 26.4032 20.0909 26.9633 20.0909H31.0938M27.3633 25.0908H19.3633M27.3633 29.0908H19.3633M21.3633 21.0908H19.3633M25.3633 14.0908H20.1633C18.4831 14.0908 17.643 14.0908 17.0013 14.4178C16.4368 14.7054 15.9779 15.1644 15.6903 15.7288C15.3633 16.3706 15.3633 17.2107 15.3633 18.8908V29.2908C15.3633 30.971 15.3633 31.8111 15.6903 32.4528C15.9779 33.0173 16.4368 33.4762 17.0013 33.7638C17.643 34.0908 18.4831 34.0908 20.1633 34.0908H26.5633C28.2434 34.0908 29.0835 34.0908 29.7253 33.7638C30.2897 33.4762 30.7487 33.0173 31.0363 32.4528C31.3633 31.8111 31.3633 30.971 31.3633 29.2908V20.0908L25.3633 14.0908Z" stroke="#2E90FA" stroke-width="2" stroke-linecap="round" stroke-linejoin="round"/>
</svg>
