<svg width="47" height="47" viewBox="0 0 47 47" fill="none" xmlns="http://www.w3.org/2000/svg">
<rect y="0.136353" width="46.7273" height="46.7273" rx="23.3636" fill="#A6F4C5"/>
<path d="M23.8633 13.5H26.5633C28.2434 13.5 29.0835 13.5 29.7253 13.827C30.2897 14.1146 30.7487 14.5735 31.0363 15.138C31.3633 15.7798 31.3633 16.6198 31.3633 18.3V28.7C31.3633 30.3802 31.3633 31.2202 31.0363 31.862C30.7487 32.4265 30.2897 32.8854 29.7253 33.173C29.0835 33.5 28.2434 33.5 26.5633 33.5H20.1633C18.4831 33.5 17.643 33.5 17.0013 33.173C16.4368 32.8854 15.9779 32.4265 15.6903 31.862C15.3633 31.2202 15.3633 30.3802 15.3633 28.7V28M27.3633 24.5H22.8633M27.3633 20.5H23.8633M27.3633 28.5H19.3633M17.3633 21.5V16C17.3633 15.1716 18.0349 14.5 18.8633 14.5C19.6917 14.5 20.3633 15.1716 20.3633 16V21.5C20.3633 23.1569 19.0201 24.5 17.3633 24.5C15.7064 24.5 14.3633 23.1569 14.3633 21.5V17.5" stroke="#01C764" stroke-width="2" stroke-linecap="round" stroke-linejoin="round"/>
</svg>
