<svg width="47" height="47" viewBox="0 0 47 47" fill="none" xmlns="http://www.w3.org/2000/svg">
<rect width="46.7273" height="46.7273" rx="23.3636" fill="#A6F4C5"/>
<path d="M13.7834 24.0768C13.6472 23.8612 13.5791 23.7534 13.541 23.5871C13.5124 23.4621 13.5124 23.2651 13.541 23.1402C13.5791 22.9739 13.6472 22.8661 13.7834 22.6505C14.9088 20.8685 18.2587 16.3636 23.3637 16.3636C28.4687 16.3636 31.8186 20.8685 32.944 22.6505C33.0802 22.8661 33.1482 22.9739 33.1864 23.1402C33.215 23.2651 33.215 23.4621 33.1864 23.5871C33.1482 23.7534 33.0802 23.8612 32.944 24.0768C31.8186 25.8588 28.4687 30.3636 23.3637 30.3636C18.2587 30.3636 14.9088 25.8588 13.7834 24.0768Z" stroke="#01C764" stroke-width="2" stroke-linecap="round" stroke-linejoin="round"/>
<path d="M23.3637 26.3636C25.0205 26.3636 26.3637 25.0205 26.3637 23.3636C26.3637 21.7068 25.0205 20.3636 23.3637 20.3636C21.7068 20.3636 20.3637 21.7068 20.3637 23.3636C20.3637 25.0205 21.7068 26.3636 23.3637 26.3636Z" stroke="#01C764" stroke-width="2" stroke-linecap="round" stroke-linejoin="round"/>
</svg>
