<svg width="47" height="48" viewBox="0 0 47 48" fill="none" xmlns="http://www.w3.org/2000/svg">
<rect y="0.727295" width="46.7273" height="46.7273" rx="23.3636" fill="#FECDCA"/>
<path d="M23.3633 34.0908C28.8861 34.0908 33.3633 29.6137 33.3633 24.0908C33.3633 18.568 28.8861 14.0908 23.3633 14.0908C17.8404 14.0908 13.3633 18.568 13.3633 24.0908C13.3633 29.6137 17.8404 34.0908 23.3633 34.0908Z" stroke="#F04438" stroke-width="2" stroke-linecap="round" stroke-linejoin="round"/>
<path d="M20.8633 21.0562C20.8633 20.5789 20.8633 20.3402 20.963 20.207C21.0499 20.0909 21.183 20.0183 21.3277 20.0079C21.4937 19.9961 21.6944 20.1251 22.0959 20.3832L26.8165 23.4179C27.1649 23.6418 27.3391 23.7538 27.3992 23.8962C27.4518 24.0206 27.4518 24.161 27.3992 24.2854C27.3391 24.4278 27.1649 24.5398 26.8165 24.7638L22.0959 27.7984C21.6944 28.0565 21.4937 28.1856 21.3277 28.1737C21.183 28.1634 21.0499 28.0907 20.963 27.9746C20.8633 27.8414 20.8633 27.6028 20.8633 27.1255V21.0562Z" stroke="#F04438" stroke-width="2" stroke-linecap="round" stroke-linejoin="round"/>
</svg>
