<svg width="47" height="47" viewBox="0 0 47 47" fill="none" xmlns="http://www.w3.org/2000/svg">
<rect width="46.7273" height="46.7273" rx="23.3636" fill="#A6F4C5"/>
<path d="M32.3633 29.3636L31.3632 30.4577C30.8327 31.0378 30.1134 31.3636 29.3634 31.3636C28.6134 31.3636 27.8941 31.0378 27.3637 30.4577C26.8325 29.8788 26.1133 29.5537 25.3635 29.5537C24.6137 29.5537 23.8944 29.8788 23.3633 30.4577M14.3633 31.3636H16.0378C16.527 31.3636 16.7716 31.3636 17.0018 31.3084C17.2058 31.2594 17.4009 31.1786 17.5799 31.0689C17.7817 30.9452 17.9547 30.7723 18.3006 30.4264L30.8633 17.8636C31.6917 17.0352 31.6917 15.6921 30.8633 14.8636C30.0349 14.0352 28.6917 14.0352 27.8633 14.8636L15.3005 27.4264C14.9546 27.7723 14.7817 27.9452 14.658 28.1471C14.5483 28.326 14.4675 28.5211 14.4185 28.7252C14.3633 28.9553 14.3633 29.1999 14.3633 29.6891V31.3636Z" stroke="#01C764" stroke-width="2" stroke-linecap="round" stroke-linejoin="round"/>
</svg>
