<svg width="47" height="47" viewBox="0 0 47 47" fill="none" xmlns="http://www.w3.org/2000/svg">
<rect width="46.7273" height="46.7273" rx="23.3636" fill="#B2DDFF"/>
<path d="M17.8633 31.3636H16.3633C15.2587 31.3636 14.3633 30.4682 14.3633 29.3636V15.3636C14.3633 14.2591 15.2587 13.3636 16.3633 13.3636H30.3633C31.4678 13.3636 32.3633 14.2591 32.3633 15.3636V29.3636C32.3633 30.4682 31.4678 31.3636 30.3633 31.3636H28.8633M23.3633 30.3636C25.0201 30.3636 26.3633 29.0205 26.3633 27.3636C26.3633 25.7068 25.0201 24.3636 23.3633 24.3636C21.7064 24.3636 20.3633 25.7068 20.3633 27.3636C20.3633 29.0205 21.7064 30.3636 23.3633 30.3636ZM23.3633 30.3636L23.3847 30.3634L20.192 33.5562L17.3635 30.7278L20.3829 27.7084M23.3633 30.3636L26.5561 33.5562L29.3845 30.7278L26.3651 27.7084M20.3633 17.3636H26.3633M18.3633 20.8636H28.3633" stroke="#2E90FA" stroke-width="2" stroke-linecap="round" stroke-linejoin="round"/>
</svg>
