<svg width="24" height="25" viewBox="0 0 24 25" fill="none" xmlns="http://www.w3.org/2000/svg">
<path d="M12.5 2.93671H15.2C16.8802 2.93671 17.7202 2.93671 18.362 3.26369C18.9265 3.55131 19.3854 4.01025 19.673 4.57474C20 5.21647 20 6.05655 20 7.73671V18.1367C20 19.8169 20 20.6569 19.673 21.2987C19.3854 21.8632 18.9265 22.3221 18.362 22.6097C17.7202 22.9367 16.8802 22.9367 15.2 22.9367H8.8C7.11984 22.9367 6.27976 22.9367 5.63803 22.6097C5.07354 22.3221 4.6146 21.8632 4.32698 21.2987C4 20.6569 4 19.8169 4 18.1367V17.4367M16 13.9367H11.5M16 9.93671H12.5M16 17.9367H8M6 10.9367V5.43671C6 4.60828 6.67157 3.93671 7.5 3.93671C8.32843 3.93671 9 4.60828 9 5.43671V10.9367C9 12.5936 7.65685 13.9367 6 13.9367C4.34315 13.9367 3 12.5936 3 10.9367V6.93671" stroke="#252B37" stroke-width="1.5" stroke-linecap="round" stroke-linejoin="round"/>
</svg>
